<?xml version="1.0" encoding="UTF-8"?>
<svg width="40px" height="40px" viewBox="0 0 40 40" version="1.1" xmlns="http://www.w3.org/2000/svg" xmlns:xlink="http://www.w3.org/1999/xlink">
    <title>Artboard</title>
    <g id="Artboard" stroke="none" stroke-width="1" fill="none" fill-rule="evenodd">
        <path d="M16.749815,1 C25.4481976,1 32.4996299,8.02890619 32.4996299,16.6995014 C32.4996299,20.1066952 31.410767,23.2603839 29.5609839,25.8336725 L39,35.2423326 L34.2270853,40 L24.5429142,30.3455355 C22.2449087,31.6523414 19.5848373,32.3990028 16.749815,32.3990028 C8.05143235,32.3990028 1,25.3700966 1,16.6995014 C1,8.02890619 8.05143235,1 16.749815,1 Z M16.749815,5.48557182 C10.5366845,5.48557182 5.49994714,10.5062191 5.49994714,16.6995014 C5.49994714,22.8927837 10.5366845,27.9134309 16.749815,27.9134309 C22.9629454,27.9134309 27.9996828,22.8927837 27.9996828,16.6995014 C27.9996828,10.5062191 22.9629454,5.48557182 16.749815,5.48557182 Z" id="Combined-Shape" fill="#FFFFFF"></path>
    </g>
</svg>