<?xml version="1.0" encoding="UTF-8"?>
<svg width="465px" height="310px" viewBox="0 0 465 310" version="1.1" xmlns="http://www.w3.org/2000/svg" xmlns:xlink="http://www.w3.org/1999/xlink">
    <title>image 1 copy</title>
    <g id="image-1-copy" stroke="none" stroke-width="1" fill="none" fill-rule="evenodd">
        <rect fill="#FFFFFF" x="0" y="0" width="465" height="310"></rect>
        <g id="back-browser">
            <g id="browser">
                <path d="M0,19 L0,4.75 C0,2.1375 1.959375,0 4.35416667,0 L413.645833,0 C416.040625,0 418,2.1375 418,4.75 L418,19" id="Path" fill="#DADADA" fill-rule="nonzero"></path>
                <g id="dots" transform="translate(8.000000, 5.000000)" fill="#FFFFFF" fill-rule="nonzero">
                    <ellipse id="Oval" cx="4.54836364" cy="4.5" rx="4.12121212" ry="4.25"></ellipse>
                    <ellipse id="Oval" cx="16.064" cy="4.5" rx="4.12121212" ry="4.25"></ellipse>
                    <ellipse id="Oval" cx="27.5796364" cy="4.5" rx="4.12121212" ry="4.25"></ellipse>
                </g>
                <polygon id="Path" fill="#DADADA" fill-rule="nonzero" points="0 242 418 242 418 244 0 244"></polygon>
                <rect id="Rectangle" fill="#D8D8D8" x="416" y="17" width="2" height="226"></rect>
            </g>
            <polygon id="Path" fill="#0B0C0C" fill-rule="nonzero" points="2 19 416 19 416 242 2 242"></polygon>
            <rect id="Rectangle" fill="#D8D8D8" x="0" y="17" width="2" height="226"></rect>
        </g>
        <g id="front-browser" transform="translate(47.000000, 66.000000)">
            <g id="browser">
                <path d="M0,19 L0,4.75 C0,2.1375 1.959375,0 4.35416667,0 L413.645833,0 C416.040625,0 418,2.1375 418,4.75 L418,19" id="Path" fill="#DADADA" fill-rule="nonzero"></path>
                <g id="dots" transform="translate(8.000000, 5.000000)" fill="#FFFFFF" fill-rule="nonzero">
                    <ellipse id="Oval" cx="4.54836364" cy="4.5" rx="4.12121212" ry="4.25"></ellipse>
                    <ellipse id="Oval" cx="16.064" cy="4.5" rx="4.12121212" ry="4.25"></ellipse>
                    <ellipse id="Oval" cx="27.5796364" cy="4.5" rx="4.12121212" ry="4.25"></ellipse>
                </g>
                <polygon id="Path" fill="#DADADA" fill-rule="nonzero" points="0 242 418 242 418 244 0 244"></polygon>
                <rect id="Rectangle" fill="#D8D8D8" x="416" y="17" width="2" height="226"></rect>
            </g>
            <polygon id="Path" fill="#FFFFFF" fill-rule="nonzero" points="2 51 416 51 416 242 2 242"></polygon>
            <rect id="Rectangle" fill="#D8D8D8" x="0" y="17" width="2" height="226"></rect>
            <rect id="Rectangle" fill="#DADADA" x="0" y="17" width="418" height="34"></rect>
        </g>
        <rect id="Rectangle" fill="#D8D8D8" x="89" y="173" width="195" height="10"></rect>
        <rect id="Rectangle-Copy" fill="#D8D8D8" x="89" y="193" width="195" height="10"></rect>
        <rect id="Rectangle-Copy" fill="#D8D8D8" x="89" y="213" width="195" height="10"></rect>
        <rect id="Rectangle-Copy" fill="#D8D8D8" x="89" y="233" width="138" height="10"></rect>
        <rect id="Rectangle" fill="#008670" x="89" y="258" width="125" height="20"></rect>
        <rect id="Rectangle" stroke="#B1B4B6" fill="#FFFFFF" x="80" y="86" width="380" height="26"></rect>
        <g id="Group" transform="translate(88.000000, 93.000000)">
            <rect id="Rectangle" fill="#00703C" x="0" y="4" width="8" height="8" rx="1"></rect>
            <path d="M7,3 C7,1.34314575 5.65685425,0 4,0 C2.34314575,0 1,1.34314575 1,3" id="Oval" stroke="#00703C"></path>
            <line x1="1" y1="3" x2="1" y2="5" id="Line" stroke="#00703C"></line>
            <line x1="7" y1="3" x2="7" y2="5" id="Line" stroke="#00703C"></line>
        </g>
        <path d="M104.830078,105 L104.830078,99.6738281 C104.830078,99.2519531 104.897461,98.8857422 105.032227,98.5751953 C105.166992,98.2646484 105.342773,98.0068359 105.55957,97.8017578 C105.776367,97.5966797 106.022461,97.4428711 106.297852,97.340332 C106.573242,97.237793 106.851562,97.1865234 107.132812,97.1865234 C107.390625,97.1865234 107.632324,97.2260742 107.85791,97.3051758 C108.083496,97.3842773 108.279785,97.5102539 108.446777,97.6831055 C108.61377,97.855957 108.745605,98.081543 108.842285,98.3598633 C108.938965,98.6381836 108.987305,98.9736328 108.987305,99.3662109 L108.987305,99.3662109 L108.987305,105 L110.463867,105 L110.463867,98.9003906 C110.463867,98.4902344 110.400879,98.1005859 110.274902,97.7314453 C110.148926,97.3623047 109.959961,97.0371094 109.708008,96.7558594 C109.456055,96.4746094 109.142578,96.2519531 108.767578,96.0878906 C108.392578,95.9238281 107.956055,95.8417969 107.458008,95.8417969 C106.907227,95.8417969 106.407715,95.9384766 105.959473,96.1318359 C105.51123,96.3251953 105.134766,96.6298828 104.830078,97.0458984 L104.830078,97.0458984 L104.830078,92.3964844 L103.353516,92.3964844 L103.353516,105 L104.830078,105 Z M116.238281,105.175781 C116.425781,105.175781 116.613281,105.169922 116.800781,105.158203 C116.988281,105.146484 117.158203,105.131836 117.310547,105.114258 C117.492188,105.09668 117.667969,105.076172 117.837891,105.052734 L117.837891,105.052734 L117.679688,103.760742 C117.609375,103.772461 117.524414,103.785645 117.424805,103.800293 C117.325195,103.814941 117.222656,103.82666 117.117188,103.835449 C117.011719,103.844238 116.910645,103.851562 116.813965,103.857422 C116.717285,103.863281 116.633789,103.866211 116.563477,103.866211 C116.299805,103.866211 116.091797,103.836914 115.939453,103.77832 C115.787109,103.719727 115.671387,103.640625 115.592285,103.541016 C115.513184,103.441406 115.463379,103.325684 115.442871,103.193848 C115.422363,103.062012 115.412109,102.919922 115.412109,102.767578 L115.412109,102.767578 L115.412109,97.3183594 L117.908203,97.3183594 L117.908203,96.0175781 L115.412109,96.0175781 L115.412109,92.5634766 L113.935547,93.0820312 L113.935547,96.0175781 L112.239258,96.0175781 L112.239258,97.3183594 L113.935547,97.3183594 L113.935547,103.092773 C113.935547,103.473633 113.988281,103.797363 114.09375,104.063965 C114.199219,104.330566 114.351562,104.545898 114.550781,104.709961 C114.75,104.874023 114.991699,104.992676 115.275879,105.065918 C115.560059,105.13916 115.880859,105.175781 116.238281,105.175781 Z M122.882812,105.175781 C123.070312,105.175781 123.257812,105.169922 123.445312,105.158203 C123.632812,105.146484 123.802734,105.131836 123.955078,105.114258 C124.136719,105.09668 124.3125,105.076172 124.482422,105.052734 L124.482422,105.052734 L124.324219,103.760742 C124.253906,103.772461 124.168945,103.785645 124.069336,103.800293 C123.969727,103.814941 123.867188,103.82666 123.761719,103.835449 C123.65625,103.844238 123.555176,103.851562 123.458496,103.857422 C123.361816,103.863281 123.27832,103.866211 123.208008,103.866211 C122.944336,103.866211 122.736328,103.836914 122.583984,103.77832 C122.431641,103.719727 122.315918,103.640625 122.236816,103.541016 C122.157715,103.441406 122.10791,103.325684 122.087402,103.193848 C122.066895,103.062012 122.056641,102.919922 122.056641,102.767578 L122.056641,102.767578 L122.056641,97.3183594 L124.552734,97.3183594 L124.552734,96.0175781 L122.056641,96.0175781 L122.056641,92.5634766 L120.580078,93.0820312 L120.580078,96.0175781 L118.883789,96.0175781 L118.883789,97.3183594 L120.580078,97.3183594 L120.580078,103.092773 C120.580078,103.473633 120.632812,103.797363 120.738281,104.063965 C120.84375,104.330566 120.996094,104.545898 121.195312,104.709961 C121.394531,104.874023 121.63623,104.992676 121.92041,105.065918 C122.20459,105.13916 122.525391,105.175781 122.882812,105.175781 Z M127.857422,107.733398 L127.857422,103.97168 C128.121094,104.34082 128.478516,104.633789 128.929688,104.850586 C129.380859,105.067383 129.899414,105.175781 130.485352,105.175781 C131.06543,105.175781 131.589844,105.060059 132.058594,104.828613 C132.527344,104.597168 132.928711,104.274902 133.262695,103.861816 C133.59668,103.44873 133.853027,102.958008 134.031738,102.389648 C134.210449,101.821289 134.299805,101.197266 134.299805,100.517578 C134.299805,99.8378906 134.210449,99.2124023 134.031738,98.6411133 C133.853027,98.0698242 133.59668,97.5761719 133.262695,97.1601562 C132.928711,96.7441406 132.527344,96.4204102 132.058594,96.1889648 C131.589844,95.9575195 131.06543,95.8417969 130.485352,95.8417969 C129.899414,95.8417969 129.380859,95.9501953 128.929688,96.1669922 C128.478516,96.3837891 128.121094,96.6767578 127.857422,97.0458984 L127.857422,97.0458984 L127.857422,96.0175781 L126.380859,96.0175781 L126.380859,107.733398 L127.857422,107.733398 Z M130.212891,103.866211 C129.820312,103.866211 129.476074,103.798828 129.180176,103.664062 C128.884277,103.529297 128.636719,103.344727 128.4375,103.110352 C128.238281,102.875977 128.087402,102.599121 127.984863,102.279785 C127.882324,101.960449 127.831055,101.613281 127.831055,101.238281 L127.831055,101.238281 L127.831055,99.7792969 C127.831055,99.4042969 127.882324,99.0571289 127.984863,98.737793 C128.087402,98.418457 128.238281,98.1416016 128.4375,97.9072266 C128.636719,97.6728516 128.884277,97.4882812 129.180176,97.3535156 C129.476074,97.21875 129.820312,97.1513672 130.212891,97.1513672 C130.623047,97.1513672 130.987793,97.2363281 131.307129,97.40625 C131.626465,97.5761719 131.894531,97.809082 132.111328,98.1049805 C132.328125,98.4008789 132.492188,98.7509766 132.603516,99.1552734 C132.714844,99.5595703 132.770508,99.9960938 132.770508,100.464844 L132.770508,100.464844 L132.770508,100.552734 C132.770508,101.021484 132.714844,101.458008 132.603516,101.862305 C132.492188,102.266602 132.328125,102.616699 132.111328,102.912598 C131.894531,103.208496 131.626465,103.441406 131.307129,103.611328 C130.987793,103.78125 130.623047,103.866211 130.212891,103.866211 Z M139.212891,105.175781 C139.628906,105.175781 140.034668,105.117188 140.430176,105 C140.825684,104.882812 141.175781,104.709961 141.480469,104.481445 C141.785156,104.25293 142.029785,103.973145 142.214355,103.64209 C142.398926,103.311035 142.491211,102.93457 142.491211,102.512695 C142.491211,102.09668 142.413574,101.742188 142.258301,101.449219 C142.103027,101.15625 141.884766,100.898438 141.603516,100.675781 C141.380859,100.505859 141.123047,100.35498 140.830078,100.223145 C140.537109,100.091309 140.214844,99.9667969 139.863281,99.8496094 L139.863281,99.8496094 L139.125,99.6035156 C138.925781,99.5332031 138.733887,99.4628906 138.549316,99.3925781 C138.364746,99.3222656 138.200684,99.2373047 138.057129,99.1376953 C137.913574,99.0380859 137.797852,98.9194336 137.709961,98.7817383 C137.62207,98.644043 137.578125,98.4726562 137.578125,98.2675781 C137.578125,98.1269531 137.608887,97.9833984 137.67041,97.8369141 C137.731934,97.6904297 137.830078,97.5585938 137.964844,97.4414062 C138.099609,97.3242188 138.27832,97.2290039 138.500977,97.1557617 C138.723633,97.0825195 138.996094,97.0458984 139.318359,97.0458984 C139.529297,97.0458984 139.743164,97.0722656 139.959961,97.125 C140.176758,97.1777344 140.384766,97.246582 140.583984,97.331543 C140.783203,97.4165039 140.970703,97.5146484 141.146484,97.6259766 C141.322266,97.7373047 141.474609,97.8544922 141.603516,97.9775391 L141.603516,97.9775391 L142.376953,96.9140625 C142.013672,96.609375 141.569824,96.3544922 141.04541,96.1494141 C140.520996,95.9443359 139.951172,95.8417969 139.335938,95.8417969 C138.779297,95.8417969 138.295898,95.9165039 137.885742,96.065918 C137.475586,96.215332 137.137207,96.4101562 136.870605,96.6503906 C136.604004,96.890625 136.40625,97.1616211 136.277344,97.4633789 C136.148438,97.7651367 136.083984,98.0683594 136.083984,98.3730469 C136.083984,98.7480469 136.149902,99.0703125 136.281738,99.3398438 C136.413574,99.609375 136.592285,99.8422852 136.817871,100.038574 C137.043457,100.234863 137.302734,100.400391 137.595703,100.535156 C137.888672,100.669922 138.193359,100.790039 138.509766,100.895508 L138.509766,100.895508 L139.072266,101.080078 C139.330078,101.162109 139.576172,101.244141 139.810547,101.326172 C140.044922,101.408203 140.25,101.504883 140.425781,101.616211 C140.601562,101.727539 140.740723,101.862305 140.843262,102.020508 C140.945801,102.178711 140.99707,102.375 140.99707,102.609375 C140.99707,102.820312 140.94873,103.009277 140.852051,103.17627 C140.755371,103.343262 140.625,103.486816 140.460938,103.606934 C140.296875,103.727051 140.10498,103.817871 139.885254,103.879395 C139.665527,103.940918 139.435547,103.97168 139.195312,103.97168 C138.902344,103.97168 138.624023,103.935059 138.360352,103.861816 C138.09668,103.788574 137.850586,103.694824 137.62207,103.580566 C137.393555,103.466309 137.187012,103.341797 137.002441,103.207031 C136.817871,103.072266 136.655273,102.943359 136.514648,102.820312 L136.514648,102.820312 L135.706055,103.866211 C136.174805,104.288086 136.712402,104.611816 137.318848,104.837402 C137.925293,105.062988 138.556641,105.175781 139.212891,105.175781 Z M145.77832,98.0742188 C145.918945,98.0742188 146.052246,98.0463867 146.178223,97.9907227 C146.304199,97.9350586 146.412598,97.8603516 146.503418,97.7666016 C146.594238,97.6728516 146.66748,97.5644531 146.723145,97.4414062 C146.778809,97.3183594 146.806641,97.1865234 146.806641,97.0458984 C146.806641,96.9052734 146.778809,96.7719727 146.723145,96.6459961 C146.66748,96.5200195 146.594238,96.4116211 146.503418,96.3208008 C146.412598,96.2299805 146.304199,96.1567383 146.178223,96.1010742 C146.052246,96.0454102 145.918945,96.0175781 145.77832,96.0175781 C145.637695,96.0175781 145.505859,96.0454102 145.382812,96.1010742 C145.259766,96.1567383 145.152832,96.2299805 145.062012,96.3208008 C144.971191,96.4116211 144.897949,96.5200195 144.842285,96.6459961 C144.786621,96.7719727 144.758789,96.9052734 144.758789,97.0458984 C144.758789,97.1865234 144.786621,97.3183594 144.842285,97.4414062 C144.897949,97.5644531 144.971191,97.6728516 145.062012,97.7666016 C145.152832,97.8603516 145.259766,97.9350586 145.382812,97.9907227 C145.505859,98.0463867 145.637695,98.0742188 145.77832,98.0742188 Z M145.77832,105.175781 C145.918945,105.175781 146.052246,105.147949 146.178223,105.092285 C146.304199,105.036621 146.412598,104.963379 146.503418,104.872559 C146.594238,104.781738 146.66748,104.674805 146.723145,104.551758 C146.778809,104.428711 146.806641,104.296875 146.806641,104.15625 C146.806641,104.015625 146.778809,103.882324 146.723145,103.756348 C146.66748,103.630371 146.594238,103.521973 146.503418,103.431152 C146.412598,103.340332 146.304199,103.26709 146.178223,103.211426 C146.052246,103.155762 145.918945,103.12793 145.77832,103.12793 C145.637695,103.12793 145.505859,103.155762 145.382812,103.211426 C145.259766,103.26709 145.152832,103.340332 145.062012,103.431152 C144.971191,103.521973 144.897949,103.630371 144.842285,103.756348 C144.786621,103.882324 144.758789,104.015625 144.758789,104.15625 C144.758789,104.296875 144.786621,104.428711 144.842285,104.551758 C144.897949,104.674805 144.971191,104.781738 145.062012,104.872559 C145.152832,104.963379 145.259766,105.036621 145.382812,105.092285 C145.505859,105.147949 145.637695,105.175781 145.77832,105.175781 Z M150.304688,105 L154.708008,92.3964844 L153.196289,92.3964844 L148.775391,105 L150.304688,105 Z M157.467773,105 L161.871094,92.3964844 L160.359375,92.3964844 L155.938477,105 L157.467773,105 Z M165.316406,105 L165.316406,99.6914062 C165.316406,99.2519531 165.373535,98.8754883 165.487793,98.5620117 C165.602051,98.2485352 165.751465,97.9892578 165.936035,97.7841797 C166.120605,97.5791016 166.331543,97.4282227 166.568848,97.331543 C166.806152,97.2348633 167.047852,97.1865234 167.293945,97.1865234 C167.540039,97.1865234 167.772949,97.2246094 167.992676,97.3007812 C168.212402,97.3769531 168.402832,97.5 168.563965,97.6699219 C168.725098,97.8398438 168.854004,98.0625 168.950684,98.3378906 C169.047363,98.6132812 169.095703,98.9501953 169.095703,99.3486328 L169.095703,99.3486328 L169.095703,105 L170.572266,105 L170.572266,99.6914062 C170.572266,99.2519531 170.629395,98.8754883 170.743652,98.5620117 C170.85791,98.2485352 171.007324,97.9892578 171.191895,97.7841797 C171.376465,97.5791016 171.587402,97.4282227 171.824707,97.331543 C172.062012,97.2348633 172.303711,97.1865234 172.549805,97.1865234 C172.790039,97.1865234 173.021484,97.2246094 173.244141,97.3007812 C173.466797,97.3769531 173.663086,97.5 173.833008,97.6699219 C174.00293,97.8398438 174.137695,98.0625 174.237305,98.3378906 C174.336914,98.6132812 174.386719,98.9501953 174.386719,99.3486328 L174.386719,99.3486328 L174.386719,105 L175.863281,105 L175.863281,98.8476562 C175.863281,98.4492188 175.797363,98.0683594 175.665527,97.7050781 C175.533691,97.3417969 175.338867,97.0224609 175.081055,96.7470703 C174.823242,96.4716797 174.506836,96.2519531 174.131836,96.0878906 C173.756836,95.9238281 173.326172,95.8417969 172.839844,95.8417969 C172.587891,95.8417969 172.334473,95.8681641 172.07959,95.9208984 C171.824707,95.9736328 171.578613,96.0585938 171.341309,96.1757812 C171.104004,96.2929688 170.878418,96.4467773 170.664551,96.637207 C170.450684,96.8276367 170.261719,97.0605469 170.097656,97.3359375 C169.980469,97.0664062 169.82666,96.8364258 169.63623,96.6459961 C169.445801,96.4555664 169.237793,96.3017578 169.012207,96.1845703 C168.786621,96.0673828 168.556641,95.980957 168.322266,95.925293 C168.087891,95.8696289 167.871094,95.8417969 167.671875,95.8417969 C167.191406,95.8417969 166.753418,95.9384766 166.35791,96.1318359 C165.962402,96.3251953 165.615234,96.6298828 165.316406,97.0458984 L165.316406,97.0458984 L165.316406,96.0175781 L163.839844,96.0175781 L163.839844,105 L165.316406,105 Z M179.493164,107.935547 C179.768555,107.935547 180.029297,107.912109 180.275391,107.865234 C180.521484,107.818359 180.745605,107.734863 180.947754,107.614746 C181.149902,107.494629 181.330078,107.333496 181.488281,107.131348 C181.646484,106.929199 181.775391,106.669922 181.875,106.353516 L181.875,106.353516 L185.144531,96.0175781 L183.492188,96.0175781 L181.382812,103.435547 L179.167969,96.0175781 L177.498047,96.0175781 L180.521484,105.307617 L180.433594,105.720703 C180.357422,106.037109 180.22998,106.265625 180.05127,106.40625 C179.872559,106.546875 179.62207,106.617188 179.299805,106.617188 C179.15332,106.617188 179.009766,106.611328 178.869141,106.599609 C178.728516,106.587891 178.602539,106.573242 178.491211,106.555664 C178.356445,106.538086 178.230469,106.517578 178.113281,106.494141 L178.113281,106.494141 L177.893555,107.786133 C178.186523,107.833008 178.464844,107.869629 178.728516,107.895996 C178.992188,107.922363 179.24707,107.935547 179.493164,107.935547 Z M189.679688,100.5 L189.679688,99.2080078 L185.900391,99.2080078 L185.900391,100.5 L189.679688,100.5 Z M197.668945,105.175781 L198.503906,104.121094 C198.246094,104.003906 198.058594,103.844238 197.941406,103.64209 C197.824219,103.439941 197.765625,103.189453 197.765625,102.890625 L197.765625,102.890625 L197.765625,98.7509766 C197.765625,97.8017578 197.484375,97.0795898 196.921875,96.5844727 C196.359375,96.0893555 195.530273,95.8417969 194.43457,95.8417969 C193.883789,95.8417969 193.325684,95.90625 192.760254,96.0351562 C192.194824,96.1640625 191.654297,96.375 191.138672,96.6679688 L191.138672,96.6679688 L191.692383,97.8369141 C192.043945,97.6494141 192.437988,97.4853516 192.874512,97.3447266 C193.311035,97.2041016 193.78125,97.1337891 194.285156,97.1337891 C194.566406,97.1337891 194.828613,97.1630859 195.071777,97.2216797 C195.314941,97.2802734 195.525879,97.3769531 195.70459,97.5117188 C195.883301,97.6464844 196.025391,97.8295898 196.130859,98.0610352 C196.236328,98.2924805 196.289062,98.578125 196.289062,98.9179688 L196.289062,98.9179688 L196.289062,99.4892578 L193.116211,99.9199219 C192.75293,99.9726562 192.424805,100.067871 192.131836,100.205566 C191.838867,100.343262 191.588379,100.520508 191.380371,100.737305 C191.172363,100.954102 191.01123,101.20752 190.896973,101.497559 C190.782715,101.787598 190.725586,102.108398 190.725586,102.459961 C190.725586,102.881836 190.804688,103.259766 190.962891,103.59375 C191.121094,103.927734 191.34082,104.211914 191.62207,104.446289 C191.90332,104.680664 192.234375,104.86084 192.615234,104.986816 C192.996094,105.112793 193.40918,105.175781 193.854492,105.175781 C194.458008,105.175781 194.983887,105.073242 195.432129,104.868164 C195.880371,104.663086 196.236328,104.408203 196.5,104.103516 L196.5,104.103516 L196.517578,104.15625 C196.599609,104.408203 196.741699,104.623535 196.943848,104.802246 C197.145996,104.980957 197.387695,105.105469 197.668945,105.175781 L197.668945,105.175781 Z M194.091797,104.041992 C193.845703,104.041992 193.609863,104.005371 193.384277,103.932129 C193.158691,103.858887 192.960938,103.751953 192.791016,103.611328 C192.621094,103.470703 192.486328,103.297852 192.386719,103.092773 C192.287109,102.887695 192.237305,102.65332 192.237305,102.389648 C192.237305,102.161133 192.276855,101.967773 192.355957,101.80957 C192.435059,101.651367 192.544922,101.518066 192.685547,101.409668 C192.826172,101.30127 192.997559,101.214844 193.199707,101.150391 C193.401855,101.085938 193.625977,101.036133 193.87207,101.000977 L193.87207,101.000977 L196.289062,100.640625 L196.289062,102.37207 C196.289062,102.635742 196.226074,102.870117 196.100098,103.075195 C195.974121,103.280273 195.808594,103.45459 195.603516,103.598145 C195.398438,103.741699 195.164062,103.851562 194.900391,103.927734 C194.636719,104.003906 194.367188,104.041992 194.091797,104.041992 Z M201.922852,107.733398 L201.922852,103.97168 C202.186523,104.34082 202.543945,104.633789 202.995117,104.850586 C203.446289,105.067383 203.964844,105.175781 204.550781,105.175781 C205.130859,105.175781 205.655273,105.060059 206.124023,104.828613 C206.592773,104.597168 206.994141,104.274902 207.328125,103.861816 C207.662109,103.44873 207.918457,102.958008 208.097168,102.389648 C208.275879,101.821289 208.365234,101.197266 208.365234,100.517578 C208.365234,99.8378906 208.275879,99.2124023 208.097168,98.6411133 C207.918457,98.0698242 207.662109,97.5761719 207.328125,97.1601562 C206.994141,96.7441406 206.592773,96.4204102 206.124023,96.1889648 C205.655273,95.9575195 205.130859,95.8417969 204.550781,95.8417969 C203.964844,95.8417969 203.446289,95.9501953 202.995117,96.1669922 C202.543945,96.3837891 202.186523,96.6767578 201.922852,97.0458984 L201.922852,97.0458984 L201.922852,96.0175781 L200.446289,96.0175781 L200.446289,107.733398 L201.922852,107.733398 Z M204.27832,103.866211 C203.885742,103.866211 203.541504,103.798828 203.245605,103.664062 C202.949707,103.529297 202.702148,103.344727 202.50293,103.110352 C202.303711,102.875977 202.152832,102.599121 202.050293,102.279785 C201.947754,101.960449 201.896484,101.613281 201.896484,101.238281 L201.896484,101.238281 L201.896484,99.7792969 C201.896484,99.4042969 201.947754,99.0571289 202.050293,98.737793 C202.152832,98.418457 202.303711,98.1416016 202.50293,97.9072266 C202.702148,97.6728516 202.949707,97.4882812 203.245605,97.3535156 C203.541504,97.21875 203.885742,97.1513672 204.27832,97.1513672 C204.688477,97.1513672 205.053223,97.2363281 205.372559,97.40625 C205.691895,97.5761719 205.959961,97.809082 206.176758,98.1049805 C206.393555,98.4008789 206.557617,98.7509766 206.668945,99.1552734 C206.780273,99.5595703 206.835938,99.9960938 206.835938,100.464844 L206.835938,100.464844 L206.835938,100.552734 C206.835938,101.021484 206.780273,101.458008 206.668945,101.862305 C206.557617,102.266602 206.393555,102.616699 206.176758,102.912598 C205.959961,103.208496 205.691895,103.441406 205.372559,103.611328 C205.053223,103.78125 204.688477,103.866211 204.27832,103.866211 Z M212.021484,107.733398 L212.021484,103.97168 C212.285156,104.34082 212.642578,104.633789 213.09375,104.850586 C213.544922,105.067383 214.063477,105.175781 214.649414,105.175781 C215.229492,105.175781 215.753906,105.060059 216.222656,104.828613 C216.691406,104.597168 217.092773,104.274902 217.426758,103.861816 C217.760742,103.44873 218.01709,102.958008 218.195801,102.389648 C218.374512,101.821289 218.463867,101.197266 218.463867,100.517578 C218.463867,99.8378906 218.374512,99.2124023 218.195801,98.6411133 C218.01709,98.0698242 217.760742,97.5761719 217.426758,97.1601562 C217.092773,96.7441406 216.691406,96.4204102 216.222656,96.1889648 C215.753906,95.9575195 215.229492,95.8417969 214.649414,95.8417969 C214.063477,95.8417969 213.544922,95.9501953 213.09375,96.1669922 C212.642578,96.3837891 212.285156,96.6767578 212.021484,97.0458984 L212.021484,97.0458984 L212.021484,96.0175781 L210.544922,96.0175781 L210.544922,107.733398 L212.021484,107.733398 Z M214.376953,103.866211 C213.984375,103.866211 213.640137,103.798828 213.344238,103.664062 C213.04834,103.529297 212.800781,103.344727 212.601562,103.110352 C212.402344,102.875977 212.251465,102.599121 212.148926,102.279785 C212.046387,101.960449 211.995117,101.613281 211.995117,101.238281 L211.995117,101.238281 L211.995117,99.7792969 C211.995117,99.4042969 212.046387,99.0571289 212.148926,98.737793 C212.251465,98.418457 212.402344,98.1416016 212.601562,97.9072266 C212.800781,97.6728516 213.04834,97.4882812 213.344238,97.3535156 C213.640137,97.21875 213.984375,97.1513672 214.376953,97.1513672 C214.787109,97.1513672 215.151855,97.2363281 215.471191,97.40625 C215.790527,97.5761719 216.058594,97.809082 216.275391,98.1049805 C216.492188,98.4008789 216.65625,98.7509766 216.767578,99.1552734 C216.878906,99.5595703 216.93457,99.9960938 216.93457,100.464844 L216.93457,100.464844 L216.93457,100.552734 C216.93457,101.021484 216.878906,101.458008 216.767578,101.862305 C216.65625,102.266602 216.492188,102.616699 216.275391,102.912598 C216.058594,103.208496 215.790527,103.441406 215.471191,103.611328 C215.151855,103.78125 214.787109,103.866211 214.376953,103.866211 Z M221.663086,105.175781 C221.803711,105.175781 221.937012,105.147949 222.062988,105.092285 C222.188965,105.036621 222.297363,104.963379 222.388184,104.872559 C222.479004,104.781738 222.552246,104.674805 222.60791,104.551758 C222.663574,104.428711 222.691406,104.296875 222.691406,104.15625 C222.691406,104.015625 222.663574,103.882324 222.60791,103.756348 C222.552246,103.630371 222.479004,103.521973 222.388184,103.431152 C222.297363,103.340332 222.188965,103.26709 222.062988,103.211426 C221.937012,103.155762 221.803711,103.12793 221.663086,103.12793 C221.522461,103.12793 221.390625,103.155762 221.267578,103.211426 C221.144531,103.26709 221.037598,103.340332 220.946777,103.431152 C220.855957,103.521973 220.782715,103.630371 220.727051,103.756348 C220.671387,103.882324 220.643555,104.015625 220.643555,104.15625 C220.643555,104.296875 220.671387,104.428711 220.727051,104.551758 C220.782715,104.674805 220.855957,104.781738 220.946777,104.872559 C221.037598,104.963379 221.144531,105.036621 221.267578,105.092285 C221.390625,105.147949 221.522461,105.175781 221.663086,105.175781 Z M228.544922,105.175781 C228.732422,105.175781 228.919922,105.169922 229.107422,105.158203 C229.294922,105.146484 229.464844,105.131836 229.617188,105.114258 C229.798828,105.09668 229.974609,105.076172 230.144531,105.052734 L230.144531,105.052734 L229.986328,103.760742 C229.916016,103.772461 229.831055,103.785645 229.731445,103.800293 C229.631836,103.814941 229.529297,103.82666 229.423828,103.835449 C229.318359,103.844238 229.217285,103.851562 229.120605,103.857422 C229.023926,103.863281 228.94043,103.866211 228.870117,103.866211 C228.606445,103.866211 228.398438,103.836914 228.246094,103.77832 C228.09375,103.719727 227.978027,103.640625 227.898926,103.541016 C227.819824,103.441406 227.77002,103.325684 227.749512,103.193848 C227.729004,103.062012 227.71875,102.919922 227.71875,102.767578 L227.71875,102.767578 L227.71875,97.3183594 L230.214844,97.3183594 L230.214844,96.0175781 L227.71875,96.0175781 L227.71875,92.5634766 L226.242188,93.0820312 L226.242188,96.0175781 L224.545898,96.0175781 L224.545898,97.3183594 L226.242188,97.3183594 L226.242188,103.092773 C226.242188,103.473633 226.294922,103.797363 226.400391,104.063965 C226.505859,104.330566 226.658203,104.545898 226.857422,104.709961 C227.056641,104.874023 227.29834,104.992676 227.58252,105.065918 C227.866699,105.13916 228.1875,105.175781 228.544922,105.175781 Z M238.318359,105.175781 L239.15332,104.121094 C238.895508,104.003906 238.708008,103.844238 238.59082,103.64209 C238.473633,103.439941 238.415039,103.189453 238.415039,102.890625 L238.415039,102.890625 L238.415039,98.7509766 C238.415039,97.8017578 238.133789,97.0795898 237.571289,96.5844727 C237.008789,96.0893555 236.179688,95.8417969 235.083984,95.8417969 C234.533203,95.8417969 233.975098,95.90625 233.409668,96.0351562 C232.844238,96.1640625 232.303711,96.375 231.788086,96.6679688 L231.788086,96.6679688 L232.341797,97.8369141 C232.693359,97.6494141 233.087402,97.4853516 233.523926,97.3447266 C233.960449,97.2041016 234.430664,97.1337891 234.93457,97.1337891 C235.21582,97.1337891 235.478027,97.1630859 235.721191,97.2216797 C235.964355,97.2802734 236.175293,97.3769531 236.354004,97.5117188 C236.532715,97.6464844 236.674805,97.8295898 236.780273,98.0610352 C236.885742,98.2924805 236.938477,98.578125 236.938477,98.9179688 L236.938477,98.9179688 L236.938477,99.4892578 L233.765625,99.9199219 C233.402344,99.9726562 233.074219,100.067871 232.78125,100.205566 C232.488281,100.343262 232.237793,100.520508 232.029785,100.737305 C231.821777,100.954102 231.660645,101.20752 231.546387,101.497559 C231.432129,101.787598 231.375,102.108398 231.375,102.459961 C231.375,102.881836 231.454102,103.259766 231.612305,103.59375 C231.770508,103.927734 231.990234,104.211914 232.271484,104.446289 C232.552734,104.680664 232.883789,104.86084 233.264648,104.986816 C233.645508,105.112793 234.058594,105.175781 234.503906,105.175781 C235.107422,105.175781 235.633301,105.073242 236.081543,104.868164 C236.529785,104.663086 236.885742,104.408203 237.149414,104.103516 L237.149414,104.103516 L237.166992,104.15625 C237.249023,104.408203 237.391113,104.623535 237.593262,104.802246 C237.79541,104.980957 238.037109,105.105469 238.318359,105.175781 L238.318359,105.175781 Z M234.741211,104.041992 C234.495117,104.041992 234.259277,104.005371 234.033691,103.932129 C233.808105,103.858887 233.610352,103.751953 233.44043,103.611328 C233.270508,103.470703 233.135742,103.297852 233.036133,103.092773 C232.936523,102.887695 232.886719,102.65332 232.886719,102.389648 C232.886719,102.161133 232.92627,101.967773 233.005371,101.80957 C233.084473,101.651367 233.194336,101.518066 233.334961,101.409668 C233.475586,101.30127 233.646973,101.214844 233.849121,101.150391 C234.05127,101.085938 234.275391,101.036133 234.521484,101.000977 L234.521484,101.000977 L236.938477,100.640625 L236.938477,102.37207 C236.938477,102.635742 236.875488,102.870117 236.749512,103.075195 C236.623535,103.280273 236.458008,103.45459 236.25293,103.598145 C236.047852,103.741699 235.813477,103.851562 235.549805,103.927734 C235.286133,104.003906 235.016602,104.041992 234.741211,104.041992 Z M241.816406,105 L243.864258,101.510742 L246.114258,105 L247.880859,105 L244.760742,100.262695 L247.50293,96.0175781 L245.789062,96.0175781 L243.952148,99.1113281 L242.027344,96.0175781 L240.339844,96.0175781 L243.09082,100.262695 L240.067383,105 L241.816406,105 Z M250.535156,105.175781 C250.675781,105.175781 250.809082,105.147949 250.935059,105.092285 C251.061035,105.036621 251.169434,104.963379 251.260254,104.872559 C251.351074,104.781738 251.424316,104.674805 251.47998,104.551758 C251.535645,104.428711 251.563477,104.296875 251.563477,104.15625 C251.563477,104.015625 251.535645,103.882324 251.47998,103.756348 C251.424316,103.630371 251.351074,103.521973 251.260254,103.431152 C251.169434,103.340332 251.061035,103.26709 250.935059,103.211426 C250.809082,103.155762 250.675781,103.12793 250.535156,103.12793 C250.394531,103.12793 250.262695,103.155762 250.139648,103.211426 C250.016602,103.26709 249.909668,103.340332 249.818848,103.431152 C249.728027,103.521973 249.654785,103.630371 249.599121,103.756348 C249.543457,103.882324 249.515625,104.015625 249.515625,104.15625 C249.515625,104.296875 249.543457,104.428711 249.599121,104.551758 C249.654785,104.674805 249.728027,104.781738 249.818848,104.872559 C249.909668,104.963379 250.016602,105.036621 250.139648,105.092285 C250.262695,105.147949 250.394531,105.175781 250.535156,105.175781 Z M257.003906,105.175781 C257.419922,105.175781 257.825684,105.117188 258.221191,105 C258.616699,104.882812 258.966797,104.709961 259.271484,104.481445 C259.576172,104.25293 259.820801,103.973145 260.005371,103.64209 C260.189941,103.311035 260.282227,102.93457 260.282227,102.512695 C260.282227,102.09668 260.20459,101.742188 260.049316,101.449219 C259.894043,101.15625 259.675781,100.898438 259.394531,100.675781 C259.171875,100.505859 258.914062,100.35498 258.621094,100.223145 C258.328125,100.091309 258.005859,99.9667969 257.654297,99.8496094 L257.654297,99.8496094 L256.916016,99.6035156 C256.716797,99.5332031 256.524902,99.4628906 256.340332,99.3925781 C256.155762,99.3222656 255.991699,99.2373047 255.848145,99.1376953 C255.70459,99.0380859 255.588867,98.9194336 255.500977,98.7817383 C255.413086,98.644043 255.369141,98.4726562 255.369141,98.2675781 C255.369141,98.1269531 255.399902,97.9833984 255.461426,97.8369141 C255.522949,97.6904297 255.621094,97.5585938 255.755859,97.4414062 C255.890625,97.3242188 256.069336,97.2290039 256.291992,97.1557617 C256.514648,97.0825195 256.787109,97.0458984 257.109375,97.0458984 C257.320312,97.0458984 257.53418,97.0722656 257.750977,97.125 C257.967773,97.1777344 258.175781,97.246582 258.375,97.331543 C258.574219,97.4165039 258.761719,97.5146484 258.9375,97.6259766 C259.113281,97.7373047 259.265625,97.8544922 259.394531,97.9775391 L259.394531,97.9775391 L260.167969,96.9140625 C259.804688,96.609375 259.36084,96.3544922 258.836426,96.1494141 C258.312012,95.9443359 257.742188,95.8417969 257.126953,95.8417969 C256.570312,95.8417969 256.086914,95.9165039 255.676758,96.065918 C255.266602,96.215332 254.928223,96.4101562 254.661621,96.6503906 C254.39502,96.890625 254.197266,97.1616211 254.068359,97.4633789 C253.939453,97.7651367 253.875,98.0683594 253.875,98.3730469 C253.875,98.7480469 253.940918,99.0703125 254.072754,99.3398438 C254.20459,99.609375 254.383301,99.8422852 254.608887,100.038574 C254.834473,100.234863 255.09375,100.400391 255.386719,100.535156 C255.679688,100.669922 255.984375,100.790039 256.300781,100.895508 L256.300781,100.895508 L256.863281,101.080078 C257.121094,101.162109 257.367188,101.244141 257.601562,101.326172 C257.835938,101.408203 258.041016,101.504883 258.216797,101.616211 C258.392578,101.727539 258.531738,101.862305 258.634277,102.020508 C258.736816,102.178711 258.788086,102.375 258.788086,102.609375 C258.788086,102.820312 258.739746,103.009277 258.643066,103.17627 C258.546387,103.343262 258.416016,103.486816 258.251953,103.606934 C258.087891,103.727051 257.895996,103.817871 257.67627,103.879395 C257.456543,103.940918 257.226562,103.97168 256.986328,103.97168 C256.693359,103.97168 256.415039,103.935059 256.151367,103.861816 C255.887695,103.788574 255.641602,103.694824 255.413086,103.580566 C255.18457,103.466309 254.978027,103.341797 254.793457,103.207031 C254.608887,103.072266 254.446289,102.943359 254.305664,102.820312 L254.305664,102.820312 L253.49707,103.866211 C253.96582,104.288086 254.503418,104.611816 255.109863,104.837402 C255.716309,105.062988 256.347656,105.175781 257.003906,105.175781 Z M266.276367,105.175781 C266.932617,105.175781 267.525879,105.071777 268.056152,104.86377 C268.586426,104.655762 269.053711,104.390625 269.458008,104.068359 L269.458008,104.068359 L268.702148,103.004883 C268.385742,103.256836 268.038574,103.466309 267.660645,103.633301 C267.282715,103.800293 266.844727,103.883789 266.34668,103.883789 C265.942383,103.883789 265.574707,103.812012 265.243652,103.668457 C264.912598,103.524902 264.625488,103.322754 264.382324,103.062012 C264.13916,102.80127 263.947266,102.492188 263.806641,102.134766 C263.666016,101.777344 263.581055,101.387695 263.551758,100.96582 L263.551758,100.96582 L269.923828,100.96582 L269.923828,100.5 C269.923828,99.8261719 269.834473,99.2036133 269.655762,98.6323242 C269.477051,98.0610352 269.220703,97.5688477 268.886719,97.1557617 C268.552734,96.7426758 268.148438,96.4204102 267.673828,96.1889648 C267.199219,95.9575195 266.666016,95.8417969 266.074219,95.8417969 C265.464844,95.8417969 264.911133,95.9575195 264.413086,96.1889648 C263.915039,96.4204102 263.487305,96.7426758 263.129883,97.1557617 C262.772461,97.5688477 262.495605,98.0610352 262.299316,98.6323242 C262.103027,99.2036133 262.004883,99.8320312 262.004883,100.517578 C262.004883,101.191406 262.104492,101.813965 262.303711,102.385254 C262.50293,102.956543 262.788574,103.44873 263.160645,103.861816 C263.532715,104.274902 263.982422,104.597168 264.509766,104.828613 C265.037109,105.060059 265.625977,105.175781 266.276367,105.175781 Z M268.324219,99.7792969 L263.569336,99.7792969 C263.586914,99.4394531 263.655762,99.1098633 263.775879,98.7905273 C263.895996,98.4711914 264.060059,98.1884766 264.268066,97.9423828 C264.476074,97.6962891 264.726562,97.5 265.019531,97.3535156 C265.3125,97.2070312 265.646484,97.1337891 266.021484,97.1337891 C266.378906,97.1337891 266.696777,97.2070312 266.975098,97.3535156 C267.253418,97.5 267.490723,97.6948242 267.687012,97.9379883 C267.883301,98.1811523 268.035645,98.4624023 268.144043,98.7817383 C268.252441,99.1010742 268.3125,99.4335938 268.324219,99.7792969 L268.324219,99.7792969 Z M273.457031,105 L273.457031,100.394531 C273.457031,99.7792969 273.536133,99.2739258 273.694336,98.878418 C273.852539,98.4829102 274.063477,98.1708984 274.327148,97.9423828 C274.59082,97.7138672 274.895508,97.5556641 275.241211,97.4677734 C275.586914,97.3798828 275.950195,97.3359375 276.331055,97.3359375 L276.331055,97.3359375 L276.568359,97.3359375 L276.568359,95.859375 L276.137695,95.859375 C275.856445,95.859375 275.57959,95.8916016 275.307129,95.9560547 C275.034668,96.0205078 274.779785,96.1186523 274.54248,96.2504883 C274.305176,96.3823242 274.092773,96.5478516 273.905273,96.7470703 C273.717773,96.9462891 273.568359,97.1777344 273.457031,97.4414062 L273.457031,97.4414062 L273.457031,96.0175781 L271.980469,96.0175781 L271.980469,105 L273.457031,105 Z M282.18457,105 L285.032227,96.0175781 L283.353516,96.0175781 L281.208984,103.628906 L279.055664,96.0175781 L277.376953,96.0175781 L280.224609,105 L282.18457,105 Z M287.572266,94.453125 C287.712891,94.453125 287.844727,94.425293 287.967773,94.3696289 C288.09082,94.3139648 288.197754,94.2407227 288.288574,94.1499023 C288.379395,94.059082 288.452637,93.9506836 288.508301,93.824707 C288.563965,93.6987305 288.591797,93.5654297 288.591797,93.4248047 C288.591797,93.2841797 288.563965,93.1523438 288.508301,93.0292969 C288.452637,92.90625 288.379395,92.7978516 288.288574,92.7041016 C288.197754,92.6103516 288.09082,92.5356445 287.967773,92.4799805 C287.844727,92.4243164 287.712891,92.3964844 287.572266,92.3964844 C287.431641,92.3964844 287.29834,92.4243164 287.172363,92.4799805 C287.046387,92.5356445 286.937988,92.6103516 286.847168,92.7041016 C286.756348,92.7978516 286.683105,92.90625 286.627441,93.0292969 C286.571777,93.1523438 286.543945,93.2841797 286.543945,93.4248047 C286.543945,93.5654297 286.571777,93.6987305 286.627441,93.824707 C286.683105,93.9506836 286.756348,94.059082 286.847168,94.1499023 C286.937988,94.2407227 287.046387,94.3139648 287.172363,94.3696289 C287.29834,94.425293 287.431641,94.453125 287.572266,94.453125 Z M288.292969,105 L288.292969,96.0175781 L286.816406,96.0175781 L286.816406,105 L288.292969,105 Z M294.585938,105.175781 C294.990234,105.175781 295.374023,105.125977 295.737305,105.026367 C296.100586,104.926758 296.43457,104.786133 296.739258,104.604492 C297.043945,104.422852 297.314941,104.20166 297.552246,103.940918 C297.789551,103.680176 297.984375,103.391602 298.136719,103.075195 L298.136719,103.075195 L296.90625,102.37207 C296.794922,102.583008 296.664551,102.780762 296.515137,102.965332 C296.365723,103.149902 296.195801,103.30957 296.005371,103.444336 C295.814941,103.579102 295.601074,103.686035 295.36377,103.765137 C295.126465,103.844238 294.867188,103.883789 294.585938,103.883789 C294.152344,103.883789 293.772949,103.794434 293.447754,103.615723 C293.122559,103.437012 292.851562,103.196777 292.634766,102.89502 C292.417969,102.593262 292.253906,102.240234 292.142578,101.835938 C292.03125,101.431641 291.975586,101.003906 291.975586,100.552734 L291.975586,100.552734 L291.975586,100.464844 C291.975586,100.013672 292.03125,99.5859375 292.142578,99.1816406 C292.253906,98.7773438 292.417969,98.4243164 292.634766,98.1225586 C292.851562,97.8208008 293.122559,97.5805664 293.447754,97.4018555 C293.772949,97.2231445 294.152344,97.1337891 294.585938,97.1337891 C294.867188,97.1337891 295.126465,97.1733398 295.36377,97.2524414 C295.601074,97.331543 295.814941,97.4384766 296.005371,97.5732422 C296.195801,97.7080078 296.365723,97.8676758 296.515137,98.0522461 C296.664551,98.2368164 296.794922,98.4345703 296.90625,98.6455078 L296.90625,98.6455078 L298.136719,97.9423828 C297.984375,97.6259766 297.789551,97.3374023 297.552246,97.0766602 C297.314941,96.815918 297.043945,96.5947266 296.739258,96.4130859 C296.43457,96.2314453 296.100586,96.0908203 295.737305,95.9912109 C295.374023,95.8916016 294.990234,95.8417969 294.585938,95.8417969 C293.964844,95.8417969 293.400879,95.9575195 292.894043,96.1889648 C292.387207,96.4204102 291.952148,96.7426758 291.588867,97.1557617 C291.225586,97.5688477 290.944336,98.0610352 290.745117,98.6323242 C290.545898,99.2036133 290.446289,99.8320312 290.446289,100.517578 C290.446289,101.197266 290.545898,101.821289 290.745117,102.389648 C290.944336,102.958008 291.225586,103.44873 291.588867,103.861816 C291.952148,104.274902 292.387207,104.597168 292.894043,104.828613 C293.400879,105.060059 293.964844,105.175781 294.585938,105.175781 Z M303.919922,105.175781 C304.576172,105.175781 305.169434,105.071777 305.699707,104.86377 C306.22998,104.655762 306.697266,104.390625 307.101562,104.068359 L307.101562,104.068359 L306.345703,103.004883 C306.029297,103.256836 305.682129,103.466309 305.304199,103.633301 C304.92627,103.800293 304.488281,103.883789 303.990234,103.883789 C303.585938,103.883789 303.218262,103.812012 302.887207,103.668457 C302.556152,103.524902 302.269043,103.322754 302.025879,103.062012 C301.782715,102.80127 301.59082,102.492188 301.450195,102.134766 C301.30957,101.777344 301.224609,101.387695 301.195312,100.96582 L301.195312,100.96582 L307.567383,100.96582 L307.567383,100.5 C307.567383,99.8261719 307.478027,99.2036133 307.299316,98.6323242 C307.120605,98.0610352 306.864258,97.5688477 306.530273,97.1557617 C306.196289,96.7426758 305.791992,96.4204102 305.317383,96.1889648 C304.842773,95.9575195 304.30957,95.8417969 303.717773,95.8417969 C303.108398,95.8417969 302.554688,95.9575195 302.056641,96.1889648 C301.558594,96.4204102 301.130859,96.7426758 300.773438,97.1557617 C300.416016,97.5688477 300.13916,98.0610352 299.942871,98.6323242 C299.746582,99.2036133 299.648438,99.8320312 299.648438,100.517578 C299.648438,101.191406 299.748047,101.813965 299.947266,102.385254 C300.146484,102.956543 300.432129,103.44873 300.804199,103.861816 C301.17627,104.274902 301.625977,104.597168 302.15332,104.828613 C302.680664,105.060059 303.269531,105.175781 303.919922,105.175781 Z M305.967773,99.7792969 L301.212891,99.7792969 C301.230469,99.4394531 301.299316,99.1098633 301.419434,98.7905273 C301.539551,98.4711914 301.703613,98.1884766 301.911621,97.9423828 C302.119629,97.6962891 302.370117,97.5 302.663086,97.3535156 C302.956055,97.2070312 303.290039,97.1337891 303.665039,97.1337891 C304.022461,97.1337891 304.340332,97.2070312 304.618652,97.3535156 C304.896973,97.5 305.134277,97.6948242 305.330566,97.9379883 C305.526855,98.1811523 305.679199,98.4624023 305.787598,98.7817383 C305.895996,99.1010742 305.956055,99.4335938 305.967773,99.7792969 L305.967773,99.7792969 Z M310.643555,105.175781 C310.78418,105.175781 310.91748,105.147949 311.043457,105.092285 C311.169434,105.036621 311.277832,104.963379 311.368652,104.872559 C311.459473,104.781738 311.532715,104.674805 311.588379,104.551758 C311.644043,104.428711 311.671875,104.296875 311.671875,104.15625 C311.671875,104.015625 311.644043,103.882324 311.588379,103.756348 C311.532715,103.630371 311.459473,103.521973 311.368652,103.431152 C311.277832,103.340332 311.169434,103.26709 311.043457,103.211426 C310.91748,103.155762 310.78418,103.12793 310.643555,103.12793 C310.50293,103.12793 310.371094,103.155762 310.248047,103.211426 C310.125,103.26709 310.018066,103.340332 309.927246,103.431152 C309.836426,103.521973 309.763184,103.630371 309.70752,103.756348 C309.651855,103.882324 309.624023,104.015625 309.624023,104.15625 C309.624023,104.296875 309.651855,104.428711 309.70752,104.551758 C309.763184,104.674805 309.836426,104.781738 309.927246,104.872559 C310.018066,104.963379 310.125,105.036621 310.248047,105.092285 C310.371094,105.147949 310.50293,105.175781 310.643555,105.175781 Z M317.666016,107.953125 C318.140625,107.953125 318.60791,107.90332 319.067871,107.803711 C319.527832,107.704102 319.939453,107.540039 320.302734,107.311523 C320.666016,107.083008 320.960449,106.779785 321.186035,106.401855 C321.411621,106.023926 321.524414,105.556641 321.524414,105 L321.524414,105 L321.524414,96.0175781 L320.047852,96.0175781 L320.047852,97.0458984 C319.737305,96.6240234 319.359375,96.3178711 318.914062,96.1274414 C318.46875,95.9370117 318,95.8417969 317.507812,95.8417969 C316.951172,95.8417969 316.44873,95.9487305 316.000488,96.1625977 C315.552246,96.3764648 315.169922,96.6694336 314.853516,97.0415039 C314.537109,97.4135742 314.293945,97.8544922 314.124023,98.3642578 C313.954102,98.8740234 313.869141,99.4248047 313.869141,100.016602 C313.869141,100.608398 313.954102,101.157715 314.124023,101.664551 C314.293945,102.171387 314.537109,102.612305 314.853516,102.987305 C315.169922,103.362305 315.552246,103.656738 316.000488,103.870605 C316.44873,104.084473 316.951172,104.191406 317.507812,104.191406 C318,104.191406 318.46875,104.096191 318.914062,103.905762 C319.359375,103.715332 319.737305,103.40918 320.047852,102.987305 L320.047852,102.987305 L320.047852,104.692383 C320.047852,105.038086 319.992188,105.335449 319.880859,105.584473 C319.769531,105.833496 319.611328,106.038574 319.40625,106.199707 C319.201172,106.36084 318.947754,106.479492 318.645996,106.555664 C318.344238,106.631836 318.005859,106.669922 317.630859,106.669922 C317.326172,106.669922 317.044922,106.649414 316.787109,106.608398 C316.529297,106.567383 316.287598,106.514648 316.062012,106.450195 C315.836426,106.385742 315.626953,106.313965 315.433594,106.234863 C315.240234,106.155762 315.055664,106.075195 314.879883,105.993164 L314.879883,105.993164 L314.34375,107.232422 C314.595703,107.355469 314.86084,107.462402 315.13916,107.553223 C315.41748,107.644043 315.700195,107.71875 315.987305,107.777344 C316.274414,107.835938 316.560059,107.879883 316.844238,107.90918 C317.128418,107.938477 317.402344,107.953125 317.666016,107.953125 Z M317.780273,102.873047 C317.370117,102.873047 317.015625,102.799805 316.716797,102.65332 C316.417969,102.506836 316.17041,102.306152 315.974121,102.05127 C315.777832,101.796387 315.632812,101.497559 315.539062,101.154785 C315.445312,100.812012 315.398438,100.444336 315.398438,100.051758 L315.398438,100.051758 L315.398438,99.9814453 C315.398438,99.5888672 315.445312,99.2197266 315.539062,98.8740234 C315.632812,98.5283203 315.777832,98.2280273 315.974121,97.9731445 C316.17041,97.7182617 316.417969,97.5175781 316.716797,97.3710938 C317.015625,97.2246094 317.370117,97.1513672 317.780273,97.1513672 C318.18457,97.1513672 318.531738,97.2231445 318.821777,97.3666992 C319.111816,97.5102539 319.350586,97.7094727 319.538086,97.9643555 C319.725586,98.2192383 319.863281,98.5180664 319.951172,98.8608398 C320.039062,99.2036133 320.083008,99.5771484 320.083008,99.9814453 L320.083008,99.9814453 L320.083008,100.051758 C320.083008,100.450195 320.039062,100.822266 319.951172,101.167969 C319.863281,101.513672 319.725586,101.8125 319.538086,102.064453 C319.350586,102.316406 319.111816,102.51416 318.821777,102.657715 C318.531738,102.80127 318.18457,102.873047 317.780273,102.873047 Z M327.817383,105.175781 C328.438477,105.175781 329.003906,105.060059 329.513672,104.828613 C330.023438,104.597168 330.458496,104.274902 330.818848,103.861816 C331.179199,103.44873 331.458984,102.956543 331.658203,102.385254 C331.857422,101.813965 331.957031,101.191406 331.957031,100.517578 C331.957031,99.8320312 331.857422,99.2036133 331.658203,98.6323242 C331.458984,98.0610352 331.179199,97.5688477 330.818848,97.1557617 C330.458496,96.7426758 330.023438,96.4204102 329.513672,96.1889648 C329.003906,95.9575195 328.438477,95.8417969 327.817383,95.8417969 C327.196289,95.8417969 326.632324,95.9575195 326.125488,96.1889648 C325.618652,96.4204102 325.183594,96.7426758 324.820312,97.1557617 C324.457031,97.5688477 324.175781,98.0610352 323.976562,98.6323242 C323.777344,99.2036133 323.677734,99.8320312 323.677734,100.517578 C323.677734,101.191406 323.777344,101.813965 323.976562,102.385254 C324.175781,102.956543 324.457031,103.44873 324.820312,103.861816 C325.183594,104.274902 325.618652,104.597168 326.125488,104.828613 C326.632324,105.060059 327.196289,105.175781 327.817383,105.175781 Z M327.817383,103.883789 C327.389648,103.883789 327.013184,103.794434 326.687988,103.615723 C326.362793,103.437012 326.090332,103.195312 325.870605,102.890625 C325.650879,102.585938 325.485352,102.23291 325.374023,101.831543 C325.262695,101.430176 325.207031,101.009766 325.207031,100.570312 L325.207031,100.570312 L325.207031,100.464844 C325.207031,100.013672 325.262695,99.5859375 325.374023,99.1816406 C325.485352,98.7773438 325.650879,98.4243164 325.870605,98.1225586 C326.090332,97.8208008 326.362793,97.5805664 326.687988,97.4018555 C327.013184,97.2231445 327.389648,97.1337891 327.817383,97.1337891 C328.245117,97.1337891 328.621582,97.2231445 328.946777,97.4018555 C329.271973,97.5805664 329.544434,97.8208008 329.76416,98.1225586 C329.983887,98.4243164 330.149414,98.7773438 330.260742,99.1816406 C330.37207,99.5859375 330.427734,100.013672 330.427734,100.464844 L330.427734,100.464844 L330.427734,100.570312 C330.427734,101.009766 330.37207,101.430176 330.260742,101.831543 C330.149414,102.23291 329.983887,102.585938 329.76416,102.890625 C329.544434,103.195312 329.271973,103.437012 328.946777,103.615723 C328.621582,103.794434 328.245117,103.883789 327.817383,103.883789 Z M338.003906,105 L340.851562,96.0175781 L339.172852,96.0175781 L337.02832,103.628906 L334.875,96.0175781 L333.196289,96.0175781 L336.043945,105 L338.003906,105 Z M343.655273,105.175781 C343.795898,105.175781 343.929199,105.147949 344.055176,105.092285 C344.181152,105.036621 344.289551,104.963379 344.380371,104.872559 C344.471191,104.781738 344.544434,104.674805 344.600098,104.551758 C344.655762,104.428711 344.683594,104.296875 344.683594,104.15625 C344.683594,104.015625 344.655762,103.882324 344.600098,103.756348 C344.544434,103.630371 344.471191,103.521973 344.380371,103.431152 C344.289551,103.340332 344.181152,103.26709 344.055176,103.211426 C343.929199,103.155762 343.795898,103.12793 343.655273,103.12793 C343.514648,103.12793 343.382812,103.155762 343.259766,103.211426 C343.136719,103.26709 343.029785,103.340332 342.938965,103.431152 C342.848145,103.521973 342.774902,103.630371 342.719238,103.756348 C342.663574,103.882324 342.635742,104.015625 342.635742,104.15625 C342.635742,104.296875 342.663574,104.428711 342.719238,104.551758 C342.774902,104.674805 342.848145,104.781738 342.938965,104.872559 C343.029785,104.963379 343.136719,105.036621 343.259766,105.092285 C343.382812,105.147949 343.514648,105.175781 343.655273,105.175781 Z M350.317383,105.175781 C350.868164,105.175781 351.367676,105.079102 351.815918,104.885742 C352.26416,104.692383 352.640625,104.387695 352.945312,103.97168 L352.945312,103.97168 L352.945312,105 L354.421875,105 L354.421875,96.0175781 L352.945312,96.0175781 L352.945312,101.34375 C352.945312,101.765625 352.882324,102.131836 352.756348,102.442383 C352.630371,102.75293 352.461914,103.010742 352.250977,103.21582 C352.040039,103.420898 351.79541,103.574707 351.51709,103.677246 C351.23877,103.779785 350.947266,103.831055 350.642578,103.831055 C350.384766,103.831055 350.143066,103.791504 349.91748,103.712402 C349.691895,103.633301 349.495605,103.507324 349.328613,103.334473 C349.161621,103.161621 349.029785,102.9375 348.933105,102.662109 C348.836426,102.386719 348.788086,102.049805 348.788086,101.651367 L348.788086,101.651367 L348.788086,96.0175781 L347.311523,96.0175781 L347.311523,102.117188 C347.311523,102.527344 347.374512,102.916992 347.500488,103.286133 C347.626465,103.655273 347.81543,103.980469 348.067383,104.261719 C348.319336,104.542969 348.632812,104.765625 349.007812,104.929688 C349.382812,105.09375 349.819336,105.175781 350.317383,105.175781 Z M358.605469,105 L358.605469,102.231445 L360.222656,100.570312 L363.043945,105 L364.845703,105 L361.268555,99.5859375 L364.6875,96.0175781 L362.833008,96.0175781 L358.605469,100.429688 L358.605469,92.3964844 L357.128906,92.3964844 L357.128906,105 L358.605469,105 Z" id="https://my-app.tax.service.gov.uk" fill="#0B0C0C" fill-rule="nonzero"></path>
        <polygon id="green" fill="#008670" fill-rule="nonzero" transform="translate(256.000000, 120.500000) scale(1, -1) translate(-256.000000, -120.500000) " points="49 117 463 117 463 124 49 124"></polygon>
        <polygon id="black" fill="#0B0C0C" fill-rule="nonzero" points="49 124 463 124 463 154 49 154"></polygon>
        <path d="M20.274,47.846 L20.274,46.712 C20.898,46.628 21.435,46.436 21.885,46.136 C22.335,45.836 22.68,45.473 22.92,45.047 C23.16,44.621 23.28,44.186 23.28,43.742 C23.28,43.238 23.172,42.815 22.956,42.473 C22.74,42.131 22.413,41.834 21.975,41.582 C21.537,41.33 20.97,41.096 20.274,40.88 L20.274,40.88 L20.274,37.406 C20.454,37.442 20.625,37.487 20.787,37.541 C20.949,37.595 21.102,37.658 21.246,37.73 C21.39,37.802 21.522,37.889 21.642,37.991 C21.762,38.093 21.876,38.204 21.984,38.324 C22.044,38.384 22.077,38.456 22.083,38.54 C22.089,38.624 22.122,38.678 22.182,38.702 L22.182,38.702 L22.956,37.73 C22.74,37.466 22.494,37.238 22.218,37.046 C21.942,36.854 21.645,36.698 21.327,36.578 C21.009,36.458 20.658,36.38 20.274,36.344 L20.274,36.344 L20.274,35.66 C20.286,35.576 20.31,35.507 20.346,35.453 C20.382,35.399 20.4,35.36 20.4,35.336 L20.4,35.336 L20.4,35.309 C20.4,35.303 20.394,35.294 20.382,35.282 L20.382,35.282 L19.23,35.282 L19.23,36.362 C18.678,36.434 18.192,36.593 17.772,36.839 C17.352,37.085 17.022,37.391 16.782,37.757 C16.542,38.123 16.422,38.528 16.422,38.972 C16.422,39.404 16.527,39.791 16.737,40.133 C16.947,40.475 17.259,40.775 17.673,41.033 C18.087,41.291 18.606,41.528 19.23,41.744 L19.23,41.744 L19.23,45.704 C18.93,45.668 18.645,45.605 18.375,45.515 C18.105,45.425 17.856,45.305 17.628,45.155 C17.4,45.005 17.184,44.822 16.98,44.606 C16.944,44.558 16.926,44.492 16.926,44.408 C16.926,44.324 16.902,44.264 16.854,44.228 L16.854,44.228 L16.08,45.308 C16.356,45.596 16.653,45.842 16.971,46.046 C17.289,46.25 17.637,46.409 18.015,46.523 C18.393,46.637 18.798,46.712 19.23,46.748 L19.23,46.748 L19.23,47.846 L20.274,47.846 Z M19.23,40.502 C18.87,40.358 18.57,40.199 18.33,40.025 C18.09,39.851 17.91,39.665 17.79,39.467 C17.67,39.269 17.61,39.056 17.61,38.828 C17.61,38.588 17.67,38.369 17.79,38.171 C17.91,37.973 18.09,37.802 18.33,37.658 C18.57,37.514 18.87,37.424 19.23,37.388 L19.23,37.388 L19.23,40.502 Z M20.274,45.668 L20.274,42.086 C20.706,42.218 21.057,42.365 21.327,42.527 C21.597,42.689 21.795,42.872 21.921,43.076 C22.047,43.28 22.11,43.526 22.11,43.814 C22.11,44.09 22.038,44.357 21.894,44.615 C21.75,44.873 21.54,45.095 21.264,45.281 C20.988,45.467 20.658,45.596 20.274,45.668 L20.274,45.668 Z M39.03,47.198 C39.606,47.198 40.143,47.09 40.641,46.874 C41.139,46.658 41.592,46.334 42,45.902 L42,45.902 L41.244,45.02 C41.052,45.236 40.842,45.419 40.614,45.569 C40.386,45.719 40.146,45.833 39.894,45.911 C39.642,45.989 39.378,46.028 39.102,46.028 C38.694,46.028 38.313,45.947 37.959,45.785 C37.605,45.623 37.302,45.398 37.05,45.11 C36.798,44.822 36.6,44.483 36.456,44.093 C36.312,43.703 36.24,43.274 36.24,42.806 C36.24,42.338 36.312,41.912 36.456,41.528 C36.6,41.144 36.795,40.817 37.041,40.547 C37.287,40.277 37.566,40.07 37.878,39.926 C38.19,39.782 38.52,39.71 38.868,39.71 C39.264,39.71 39.612,39.758 39.912,39.854 C40.212,39.95 40.494,40.118 40.758,40.358 C40.902,40.502 40.995,40.616 41.037,40.7 C41.079,40.784 41.1,40.874 41.1,40.97 L41.1,40.97 L41.19,41.06 L41.316,40.934 L42.126,40.142 C41.79,39.662 41.355,39.287 40.821,39.017 C40.287,38.747 39.684,38.612 39.012,38.612 C38.424,38.612 37.878,38.72 37.374,38.936 C36.87,39.152 36.435,39.452 36.069,39.836 C35.703,40.22 35.418,40.673 35.214,41.195 C35.01,41.717 34.908,42.284 34.908,42.896 C34.908,43.52 35.01,44.093 35.214,44.615 C35.418,45.137 35.703,45.59 36.069,45.974 C36.435,46.358 36.87,46.658 37.374,46.874 C37.878,47.09 38.43,47.198 39.03,47.198 Z M47.328,47.198 C47.604,47.198 47.865,47.165 48.111,47.099 C48.357,47.033 48.591,46.937 48.813,46.811 C49.035,46.685 49.236,46.532 49.416,46.352 C49.596,46.172 49.752,45.968 49.884,45.74 C49.884,45.872 49.887,46.01 49.893,46.154 C49.899,46.298 49.914,46.439 49.938,46.577 C49.962,46.715 50.004,46.856 50.064,47 L50.064,47 L51.306,47 C51.222,46.784 51.171,46.571 51.153,46.361 C51.135,46.151 51.126,45.938 51.126,45.722 L51.126,45.722 L51.126,38.774 L49.866,38.774 L49.866,43.31 C49.866,43.802 49.806,44.228 49.686,44.588 C49.566,44.948 49.401,45.242 49.191,45.47 C48.981,45.698 48.744,45.869 48.48,45.983 C48.216,46.097 47.94,46.154 47.652,46.154 C47.4,46.154 47.16,46.106 46.932,46.01 C46.704,45.914 46.503,45.758 46.329,45.542 C46.155,45.326 46.02,45.038 45.924,44.678 C45.828,44.318 45.78,43.88 45.78,43.364 L45.78,43.364 L45.78,38.774 L44.52,38.774 L44.502,43.364 C44.502,43.892 44.547,44.366 44.637,44.786 C44.727,45.206 44.856,45.566 45.024,45.866 C45.192,46.166 45.393,46.415 45.627,46.613 C45.861,46.811 46.122,46.958 46.41,47.054 C46.698,47.15 47.004,47.198 47.328,47.198 Z M56.256,47.018 L56.256,42.644 C56.256,42.128 56.328,41.684 56.472,41.312 C56.616,40.94 56.811,40.634 57.057,40.394 C57.303,40.154 57.576,39.977 57.876,39.863 C58.176,39.749 58.476,39.692 58.776,39.692 C58.98,39.692 59.163,39.713 59.325,39.755 C59.487,39.797 59.664,39.878 59.856,39.998 C60.012,40.118 60.114,40.22 60.162,40.304 C60.21,40.388 60.246,40.478 60.27,40.574 L60.27,40.574 L60.396,40.646 L60.468,40.484 L61.044,39.476 C60.756,39.176 60.429,38.951 60.063,38.801 C59.697,38.651 59.298,38.576 58.866,38.576 C58.542,38.576 58.23,38.627 57.93,38.729 C57.63,38.831 57.354,38.981 57.102,39.179 C56.85,39.377 56.634,39.62 56.454,39.908 C56.382,40.0232 56.31864,40.14512 56.26392,40.27376 L56.257,40.289 L56.292,38.774 L54.942,38.774 L54.942,47.018 L56.256,47.018 Z M69.828,47 L69.828,45.956 L67.416,45.956 L67.416,35.03 L63.78,35.03 L63.78,36.074 L66.102,36.074 L66.102,45.956 L63.672,45.956 L63.672,47 L69.828,47 Z M83.724,47 L83.724,42.266 C83.724,41.942 83.772,41.648 83.868,41.384 C83.964,41.12 84.096,40.883 84.264,40.673 C84.432,40.463 84.621,40.286 84.831,40.142 C85.041,39.998 85.26,39.89 85.488,39.818 C85.716,39.746 85.938,39.71 86.154,39.71 C86.442,39.71 86.7,39.785 86.928,39.935 C87.156,40.085 87.336,40.331 87.468,40.673 C87.6,41.015 87.666,41.474 87.666,42.05 L87.666,42.05 L87.666,47 L88.926,47 L88.926,42.014 C88.926,41.186 88.821,40.52 88.611,40.016 C88.401,39.512 88.107,39.146 87.729,38.918 C87.351,38.69 86.916,38.576 86.424,38.576 C86.088,38.576 85.755,38.645 85.425,38.783 C85.095,38.921 84.783,39.113 84.489,39.359 C84.195,39.605 83.94,39.896 83.724,40.232 L83.724,40.232 L83.724,35.822 C83.724,35.618 83.733,35.474 83.751,35.39 C83.769,35.306 83.814,35.228 83.886,35.156 L83.886,35.156 L83.886,35.03 L82.464,35.03 L82.464,47 L83.724,47 Z M95.982,47.126 C96.45,47.126 96.9,47.054 97.332,46.91 C97.764,46.766 98.184,46.544 98.592,46.244 L98.592,46.244 L98.196,45.218 C97.86,45.458 97.539,45.656 97.233,45.812 C96.927,45.968 96.576,46.046 96.18,46.046 C95.82,46.046 95.532,45.953 95.316,45.767 C95.1,45.581 94.95,45.239 94.866,44.741 C94.782,44.243 94.758,43.538 94.794,42.626 L94.794,42.626 L94.912,39.836 L97.782,39.836 L97.782,38.774 L94.91,38.774 L95.028,37.298 C95.0472,37.1348 95.07216,37.01 95.10288,36.9236 L95.127,36.866 C95.169,36.782 95.22,36.698 95.28,36.614 L95.28,36.614 L95.262,36.488 L95.082,36.506 L93.732,36.668 L93.654,38.774 L91.86,38.774 L91.86,39.836 L93.615,39.836 L93.516,42.536 C93.4954286,43.2148571 93.5035102,43.8143673 93.5402449,44.3345306 L93.561,44.588 C93.615,45.164 93.732,45.641 93.912,46.019 C94.092,46.397 94.35,46.676 94.686,46.856 C95.022,47.036 95.454,47.126 95.982,47.126 Z M105.432,47.126 C105.9,47.126 106.35,47.054 106.782,46.91 C107.214,46.766 107.634,46.544 108.042,46.244 L108.042,46.244 L107.646,45.218 C107.31,45.458 106.989,45.656 106.683,45.812 C106.377,45.968 106.026,46.046 105.63,46.046 C105.27,46.046 104.982,45.953 104.766,45.767 C104.55,45.581 104.4,45.239 104.316,44.741 C104.232,44.243 104.208,43.538 104.244,42.626 L104.244,42.626 L104.362,39.836 L107.232,39.836 L107.232,38.774 L104.36,38.774 L104.478,37.298 C104.4972,37.1348 104.52216,37.01 104.55288,36.9236 L104.577,36.866 C104.619,36.782 104.67,36.698 104.73,36.614 L104.73,36.614 L104.712,36.488 L104.532,36.506 L103.182,36.668 L103.104,38.774 L101.31,38.774 L101.31,39.836 L103.065,39.836 L102.966,42.536 C102.945429,43.2148571 102.95351,43.8143673 102.990245,44.3345306 L103.011,44.588 C103.065,45.164 103.182,45.641 103.362,46.019 C103.542,46.397 103.8,46.676 104.136,46.856 C104.472,47.036 104.904,47.126 105.432,47.126 Z M111.912,50.006 L111.912,45.92 C112.104,46.184 112.326,46.415 112.578,46.613 C112.83,46.811 113.109,46.961 113.415,47.063 C113.721,47.165 114.036,47.216 114.36,47.216 C114.792,47.216 115.215,47.123 115.629,46.937 C116.043,46.751 116.415,46.475 116.745,46.109 C117.075,45.743 117.339,45.284 117.537,44.732 C117.735,44.18 117.834,43.544 117.834,42.824 C117.834,42.104 117.741,41.48 117.555,40.952 C117.369,40.424 117.117,39.986 116.799,39.638 C116.481,39.29 116.115,39.029 115.701,38.855 C115.287,38.681 114.852,38.594 114.396,38.594 C114.012,38.594 113.655,38.657 113.325,38.783 C112.995,38.909 112.707,39.104 112.461,39.368 C112.215,39.632 112.026,39.974 111.894,40.394 L111.894,40.394 L111.894,38.774 L110.58,38.774 L110.58,50.006 L111.912,50.006 Z M114.144,46.064 C113.88,46.064 113.634,46.025 113.406,45.947 C113.178,45.869 112.974,45.755 112.794,45.605 C112.614,45.455 112.458,45.263 112.326,45.029 C112.194,44.795 112.092,44.522 112.02,44.21 C111.948,43.898 111.906,43.55 111.894,43.166 C111.894,42.53 111.957,41.987 112.083,41.537 C112.209,41.087 112.386,40.724 112.614,40.448 C112.842,40.172 113.103,39.974 113.397,39.854 C113.691,39.734 114.006,39.686 114.342,39.71 C114.798,39.734 115.185,39.872 115.503,40.124 C115.821,40.376 116.064,40.733 116.232,41.195 C116.4,41.657 116.484,42.218 116.484,42.878 C116.484,43.49 116.418,44.003 116.286,44.417 C116.154,44.831 115.974,45.158 115.746,45.398 C115.518,45.638 115.266,45.809 114.99,45.911 C114.714,46.013 114.432,46.064 114.144,46.064 Z M123.468,47.18 C124.236,47.18 124.872,47.063 125.376,46.829 C125.88,46.595 126.255,46.28 126.501,45.884 C126.747,45.488 126.87,45.062 126.87,44.606 C126.87,44.21 126.777,43.868 126.591,43.58 C126.405,43.292 126.105,43.037 125.691,42.815 C125.277,42.593 124.728,42.374 124.044,42.158 C123.42,41.978 122.94,41.801 122.604,41.627 C122.268,41.453 122.037,41.279 121.911,41.105 C121.785,40.931 121.722,40.754 121.722,40.574 C121.722,40.226 121.896,39.968 122.244,39.8 C122.592,39.632 123.006,39.548 123.486,39.548 C123.81,39.548 124.146,39.605 124.494,39.719 C124.842,39.833 125.154,39.998 125.43,40.214 C125.562,40.346 125.649,40.457 125.691,40.547 C125.733,40.637 125.76,40.73 125.772,40.826 L125.772,40.826 L125.862,40.916 L125.988,40.772 L126.726,39.872 C126.522,39.656 126.309,39.467 126.087,39.305 C125.865,39.143 125.622,39.008 125.358,38.9 C125.094,38.792 124.806,38.711 124.494,38.657 C124.182,38.603 123.834,38.576 123.45,38.576 C122.79,38.576 122.235,38.663 121.785,38.837 C121.335,39.011 120.996,39.251 120.768,39.557 C120.54,39.863 120.426,40.226 120.426,40.646 C120.426,41.054 120.552,41.417 120.804,41.735 C121.056,42.053 121.416,42.332 121.884,42.572 C122.352,42.812 122.898,43.022 123.522,43.202 C123.906,43.322 124.23,43.442 124.494,43.562 C124.758,43.682 124.971,43.802 125.133,43.922 C125.295,44.042 125.412,44.171 125.484,44.309 C125.556,44.447 125.592,44.606 125.592,44.786 C125.592,45.05 125.508,45.281 125.34,45.479 C125.172,45.677 124.935,45.83 124.629,45.938 C124.323,46.046 123.948,46.1 123.504,46.1 C122.952,46.1 122.499,46.019 122.145,45.857 C121.791,45.695 121.488,45.488 121.236,45.236 C121.104,45.092 121.023,44.969 120.993,44.867 C120.963,44.765 120.936,44.666 120.912,44.57 L120.912,44.57 L120.804,44.498 L120.696,44.66 L119.976,45.884 C120.288,46.172 120.627,46.412 120.993,46.604 C121.359,46.796 121.749,46.94 122.163,47.036 C122.577,47.132 123.012,47.18 123.468,47.18 Z M132.684,41.456 C132.972,41.456 133.224,41.354 133.44,41.15 C133.656,40.946 133.764,40.706 133.764,40.43 C133.764,40.142 133.653,39.896 133.431,39.692 C133.209,39.488 132.96,39.386 132.684,39.386 C132.408,39.386 132.162,39.488 131.946,39.692 C131.73,39.896 131.622,40.142 131.622,40.43 C131.622,40.706 131.73,40.946 131.946,41.15 C132.162,41.354 132.408,41.456 132.684,41.456 Z M132.684,47.198 C132.984,47.198 133.239,47.096 133.449,46.892 C133.659,46.688 133.764,46.448 133.764,46.172 C133.764,45.884 133.653,45.638 133.431,45.434 C133.209,45.23 132.96,45.128 132.684,45.128 C132.408,45.128 132.162,45.23 131.946,45.434 C131.73,45.638 131.622,45.884 131.622,46.172 C131.622,46.46 131.724,46.703 131.928,46.901 C132.132,47.099 132.384,47.198 132.684,47.198 Z M140.064,47.756 L145.716,35.588 L144.636,35.03 L139.002,47.234 L140.064,47.756 Z M149.514,47.756 L155.166,35.588 L154.086,35.03 L148.452,47.234 L149.514,47.756 Z M158.622,47 L158.622,41.51 C158.622,41.198 158.658,40.922 158.73,40.682 C158.802,40.442 158.898,40.241 159.018,40.079 C159.138,39.917 159.267,39.791 159.405,39.701 C159.543,39.611 159.678,39.566 159.81,39.566 C160.158,39.566 160.395,39.68 160.521,39.908 C160.647,40.136 160.71,40.592 160.71,41.276 L160.71,41.276 L160.71,47 L161.916,47 L161.916,41.564 C161.916,41.252 161.979,40.94 162.105,40.628 C162.231,40.316 162.393,40.055 162.591,39.845 C162.789,39.635 163.002,39.53 163.23,39.53 C163.374,39.53 163.506,39.563 163.626,39.629 C163.746,39.695 163.839,39.842 163.905,40.07 C163.971,40.298 164.004,40.664 164.004,41.168 L164.004,41.168 L164.004,47 L165.192,47 L165.192,40.682 C165.204,40.382 165.18,40.103 165.12,39.845 C165.06,39.587 164.964,39.365 164.832,39.179 C164.7,38.993 164.532,38.846 164.328,38.738 C164.124,38.63 163.884,38.576 163.608,38.576 C163.344,38.576 163.089,38.627 162.843,38.729 C162.597,38.831 162.381,38.972 162.195,39.152 C162.009,39.332 161.862,39.542 161.754,39.782 C161.706,39.542 161.613,39.332 161.475,39.152 C161.337,38.972 161.166,38.831 160.962,38.729 C160.758,38.627 160.536,38.576 160.296,38.576 C160.08,38.576 159.867,38.618 159.657,38.702 C159.447,38.786 159.255,38.903 159.081,39.053 C158.907,39.203 158.754,39.38 158.622,39.584 L158.622,39.584 L158.622,38.774 L157.434,38.774 L157.434,47 L158.622,47 Z M168.486,50.132 C169.074,50.132 169.593,49.967 170.043,49.637 C170.493,49.307 170.862,48.74 171.15,47.936 L171.15,47.936 L173.202,42.14 C173.406,41.576 173.598,41.012 173.778,40.448 C173.958,39.884 174.09,39.326 174.174,38.774 L174.174,38.774 L172.878,38.774 C172.818,39.326 172.704,39.872 172.536,40.412 C172.368,40.952 172.194,41.498 172.014,42.05 L172.014,42.05 L170.94,45.369 L168.378,38.774 L167.028,38.774 L170.393,47.057 L170.35368,47.17712 C170.25864,47.45216 170.16144,47.69696 170.06208,47.91152 L169.962,48.116 C169.794,48.44 169.599,48.68 169.377,48.836 C169.155,48.992 168.882,49.07 168.558,49.07 C168.426,49.07 168.3,49.061 168.18,49.043 C168.06,49.025 167.946,48.998 167.838,48.962 C167.67,48.854 167.556,48.767 167.496,48.701 C167.436,48.635 167.394,48.554 167.37,48.458 L167.37,48.458 L167.262,48.386 L167.154,48.548 L166.596,49.43 C166.836,49.658 167.115,49.832 167.433,49.952 C167.751,50.072 168.102,50.132 168.486,50.132 Z M182.688,41.942 L182.688,40.736 L177.648,40.736 L177.648,41.942 L182.688,41.942 Z M188.898,47.198 C189.138,47.198 189.39,47.177 189.654,47.135 C189.918,47.093 190.176,47.021 190.428,46.919 C190.68,46.817 190.917,46.67 191.139,46.478 C191.361,46.286 191.55,46.04 191.706,45.74 L191.706,45.74 L191.706,47 L193.11,47 L193.11,42.626 C193.11,41.846 193.023,41.198 192.849,40.682 C192.675,40.166 192.429,39.755 192.111,39.449 C191.793,39.143 191.412,38.924 190.968,38.792 C190.524,38.66 190.032,38.594 189.492,38.594 C188.928,38.594 188.394,38.69 187.89,38.882 C187.386,39.074 186.942,39.362 186.558,39.746 L186.558,39.746 L187.188,40.574 C187.5,40.262 187.848,40.031 188.232,39.881 C188.616,39.731 189.006,39.656 189.402,39.656 C189.99,39.656 190.473,39.752 190.851,39.944 C191.229,40.136 191.514,40.46 191.706,40.916 C191.834,41.22 191.919333,41.604 191.962,42.068 L191.969,42.172 L191.889,42.161 C191.807,42.151 191.726,42.142 191.646,42.134 L191.409,42.113 C191.175,42.095 190.953,42.083 190.743,42.077 C190.533,42.071 190.326,42.068 190.122,42.068 C189.558,42.068 189.024,42.134 188.52,42.266 C188.016,42.398 187.575,42.587 187.197,42.833 C186.819,43.079 186.522,43.379 186.306,43.733 C186.09,44.087 185.982,44.486 185.982,44.93 C185.982,45.59 186.234,46.133 186.738,46.559 C187.242,46.985 187.962,47.198 188.898,47.198 Z M189.024,46.208 C188.772,46.208 188.541,46.184 188.331,46.136 C188.121,46.088 187.938,46.013 187.782,45.911 C187.626,45.809 187.503,45.671 187.413,45.497 C187.323,45.323 187.278,45.11 187.278,44.858 C187.278,44.534 187.35,44.258 187.494,44.03 C187.638,43.802 187.842,43.616 188.106,43.472 C188.37,43.328 188.682,43.22 189.042,43.148 C189.402,43.076 189.798,43.04 190.23,43.04 C190.434,43.04 190.644,43.046 190.86,43.058 C191.076,43.07 191.295,43.085 191.517,43.103 C191.739,43.121 191.958,43.148 192.174,43.184 L191.984,43.157 L191.972,43.344 C191.95,43.594 191.9115,43.829 191.8565,44.049 L191.796,44.264 C191.664,44.684 191.469,45.038 191.211,45.326 C190.953,45.614 190.641,45.833 190.275,45.983 C189.909,46.133 189.492,46.208 189.024,46.208 Z M196.962,50.006 L196.962,45.92 C197.154,46.184 197.376,46.415 197.628,46.613 C197.88,46.811 198.159,46.961 198.465,47.063 C198.771,47.165 199.086,47.216 199.41,47.216 C199.842,47.216 200.265,47.123 200.679,46.937 C201.093,46.751 201.465,46.475 201.795,46.109 C202.125,45.743 202.389,45.284 202.587,44.732 C202.785,44.18 202.884,43.544 202.884,42.824 C202.884,42.104 202.791,41.48 202.605,40.952 C202.419,40.424 202.167,39.986 201.849,39.638 C201.531,39.29 201.165,39.029 200.751,38.855 C200.337,38.681 199.902,38.594 199.446,38.594 C199.062,38.594 198.705,38.657 198.375,38.783 C198.045,38.909 197.757,39.104 197.511,39.368 C197.265,39.632 197.076,39.974 196.944,40.394 L196.944,40.394 L196.944,38.774 L195.63,38.774 L195.63,50.006 L196.962,50.006 Z M199.194,46.064 C198.93,46.064 198.684,46.025 198.456,45.947 C198.228,45.869 198.024,45.755 197.844,45.605 C197.664,45.455 197.508,45.263 197.376,45.029 C197.244,44.795 197.142,44.522 197.07,44.21 C196.998,43.898 196.956,43.55 196.944,43.166 C196.944,42.53 197.007,41.987 197.133,41.537 C197.259,41.087 197.436,40.724 197.664,40.448 C197.892,40.172 198.153,39.974 198.447,39.854 C198.741,39.734 199.056,39.686 199.392,39.71 C199.848,39.734 200.235,39.872 200.553,40.124 C200.871,40.376 201.114,40.733 201.282,41.195 C201.45,41.657 201.534,42.218 201.534,42.878 C201.534,43.49 201.468,44.003 201.336,44.417 C201.204,44.831 201.024,45.158 200.796,45.398 C200.568,45.638 200.316,45.809 200.04,45.911 C199.764,46.013 199.482,46.064 199.194,46.064 Z M206.412,50.006 L206.412,45.92 C206.604,46.184 206.826,46.415 207.078,46.613 C207.33,46.811 207.609,46.961 207.915,47.063 C208.221,47.165 208.536,47.216 208.86,47.216 C209.292,47.216 209.715,47.123 210.129,46.937 C210.543,46.751 210.915,46.475 211.245,46.109 C211.575,45.743 211.839,45.284 212.037,44.732 C212.235,44.18 212.334,43.544 212.334,42.824 C212.334,42.104 212.241,41.48 212.055,40.952 C211.869,40.424 211.617,39.986 211.299,39.638 C210.981,39.29 210.615,39.029 210.201,38.855 C209.787,38.681 209.352,38.594 208.896,38.594 C208.512,38.594 208.155,38.657 207.825,38.783 C207.495,38.909 207.207,39.104 206.961,39.368 C206.715,39.632 206.526,39.974 206.394,40.394 L206.394,40.394 L206.394,38.774 L205.08,38.774 L205.08,50.006 L206.412,50.006 Z M208.644,46.064 C208.38,46.064 208.134,46.025 207.906,45.947 C207.678,45.869 207.474,45.755 207.294,45.605 C207.114,45.455 206.958,45.263 206.826,45.029 C206.694,44.795 206.592,44.522 206.52,44.21 C206.448,43.898 206.406,43.55 206.394,43.166 C206.394,42.53 206.457,41.987 206.583,41.537 C206.709,41.087 206.886,40.724 207.114,40.448 C207.342,40.172 207.603,39.974 207.897,39.854 C208.191,39.734 208.506,39.686 208.842,39.71 C209.298,39.734 209.685,39.872 210.003,40.124 C210.321,40.376 210.564,40.733 210.732,41.195 C210.9,41.657 210.984,42.218 210.984,42.878 C210.984,43.49 210.918,44.003 210.786,44.417 C210.654,44.831 210.474,45.158 210.246,45.398 C210.018,45.638 209.766,45.809 209.49,45.911 C209.214,46.013 208.932,46.064 208.644,46.064 Z M217.734,47.198 C218.01,47.198 218.25,47.096 218.454,46.892 C218.658,46.688 218.76,46.448 218.76,46.172 C218.76,45.896 218.658,45.656 218.454,45.452 C218.25,45.248 218.01,45.146 217.734,45.146 C217.446,45.146 217.2,45.248 216.996,45.452 C216.792,45.656 216.69,45.896 216.69,46.172 C216.69,46.448 216.792,46.688 216.996,46.892 C217.2,47.096 217.446,47.198 217.734,47.198 Z M228.282,47.126 C228.75,47.126 229.2,47.054 229.632,46.91 C230.064,46.766 230.484,46.544 230.892,46.244 L230.892,46.244 L230.496,45.218 C230.16,45.458 229.839,45.656 229.533,45.812 C229.227,45.968 228.876,46.046 228.48,46.046 C228.12,46.046 227.832,45.953 227.616,45.767 C227.4,45.581 227.25,45.239 227.166,44.741 C227.082,44.243 227.058,43.538 227.094,42.626 L227.094,42.626 L227.211,39.836 L230.082,39.836 L230.082,38.774 L227.209,38.774 L227.328,37.298 C227.3472,37.1348 227.37216,37.01 227.40288,36.9236 L227.427,36.866 C227.469,36.782 227.52,36.698 227.58,36.614 L227.58,36.614 L227.562,36.488 L227.382,36.506 L226.032,36.668 L225.953,38.774 L224.16,38.774 L224.16,39.836 L225.914,39.836 L225.816,42.536 C225.795429,43.2148571 225.80351,43.8143673 225.840245,44.3345306 L225.861,44.588 C225.915,45.164 226.032,45.641 226.212,46.019 C226.392,46.397 226.65,46.676 226.986,46.856 C227.322,47.036 227.754,47.126 228.282,47.126 Z M236.148,47.198 C236.388,47.198 236.64,47.177 236.904,47.135 C237.168,47.093 237.426,47.021 237.678,46.919 C237.93,46.817 238.167,46.67 238.389,46.478 C238.611,46.286 238.8,46.04 238.956,45.74 L238.956,45.74 L238.956,47 L240.36,47 L240.36,42.626 C240.36,41.846 240.273,41.198 240.099,40.682 C239.925,40.166 239.679,39.755 239.361,39.449 C239.043,39.143 238.662,38.924 238.218,38.792 C237.774,38.66 237.282,38.594 236.742,38.594 C236.178,38.594 235.644,38.69 235.14,38.882 C234.636,39.074 234.192,39.362 233.808,39.746 L233.808,39.746 L234.438,40.574 C234.75,40.262 235.098,40.031 235.482,39.881 C235.866,39.731 236.256,39.656 236.652,39.656 C237.24,39.656 237.723,39.752 238.101,39.944 C238.479,40.136 238.764,40.46 238.956,40.916 C239.084,41.22 239.169333,41.604 239.212,42.068 L239.219,42.172 L239.139,42.161 C239.057,42.151 238.976,42.142 238.896,42.134 L238.659,42.113 C238.425,42.095 238.203,42.083 237.993,42.077 C237.783,42.071 237.576,42.068 237.372,42.068 C236.808,42.068 236.274,42.134 235.77,42.266 C235.266,42.398 234.825,42.587 234.447,42.833 C234.069,43.079 233.772,43.379 233.556,43.733 C233.34,44.087 233.232,44.486 233.232,44.93 C233.232,45.59 233.484,46.133 233.988,46.559 C234.492,46.985 235.212,47.198 236.148,47.198 Z M236.274,46.208 C236.022,46.208 235.791,46.184 235.581,46.136 C235.371,46.088 235.188,46.013 235.032,45.911 C234.876,45.809 234.753,45.671 234.663,45.497 C234.573,45.323 234.528,45.11 234.528,44.858 C234.528,44.534 234.6,44.258 234.744,44.03 C234.888,43.802 235.092,43.616 235.356,43.472 C235.62,43.328 235.932,43.22 236.292,43.148 C236.652,43.076 237.048,43.04 237.48,43.04 C237.684,43.04 237.894,43.046 238.11,43.058 C238.326,43.07 238.545,43.085 238.767,43.103 C238.989,43.121 239.208,43.148 239.424,43.184 L239.234,43.157 L239.222,43.344 C239.2,43.594 239.1615,43.829 239.1065,44.049 L239.046,44.264 C238.914,44.684 238.719,45.038 238.461,45.326 C238.203,45.614 237.891,45.833 237.525,45.983 C237.159,46.133 236.742,46.208 236.274,46.208 Z M244.122,47 L246.264,43.796 L248.532,47 L250.008,47 L246.984,42.77 L249.648,38.774 L248.316,38.774 L246.264,41.816 L244.122,38.774 L242.7,38.774 L245.544,42.824 L242.646,47 L244.122,47 Z M255.534,47.198 C255.81,47.198 256.05,47.096 256.254,46.892 C256.458,46.688 256.56,46.448 256.56,46.172 C256.56,45.896 256.458,45.656 256.254,45.452 C256.05,45.248 255.81,45.146 255.534,45.146 C255.246,45.146 255,45.248 254.796,45.452 C254.592,45.656 254.49,45.896 254.49,46.172 C254.49,46.448 254.592,46.688 254.796,46.892 C255,47.096 255.246,47.198 255.534,47.198 Z M265.218,47.18 C265.986,47.18 266.622,47.063 267.126,46.829 C267.63,46.595 268.005,46.28 268.251,45.884 C268.497,45.488 268.62,45.062 268.62,44.606 C268.62,44.21 268.527,43.868 268.341,43.58 C268.155,43.292 267.855,43.037 267.441,42.815 C267.027,42.593 266.478,42.374 265.794,42.158 C265.17,41.978 264.69,41.801 264.354,41.627 C264.018,41.453 263.787,41.279 263.661,41.105 C263.535,40.931 263.472,40.754 263.472,40.574 C263.472,40.226 263.646,39.968 263.994,39.8 C264.342,39.632 264.756,39.548 265.236,39.548 C265.56,39.548 265.896,39.605 266.244,39.719 C266.592,39.833 266.904,39.998 267.18,40.214 C267.312,40.346 267.399,40.457 267.441,40.547 C267.483,40.637 267.51,40.73 267.522,40.826 L267.522,40.826 L267.612,40.916 L267.738,40.772 L268.476,39.872 C268.272,39.656 268.059,39.467 267.837,39.305 C267.615,39.143 267.372,39.008 267.108,38.9 C266.844,38.792 266.556,38.711 266.244,38.657 C265.932,38.603 265.584,38.576 265.2,38.576 C264.54,38.576 263.985,38.663 263.535,38.837 C263.085,39.011 262.746,39.251 262.518,39.557 C262.29,39.863 262.176,40.226 262.176,40.646 C262.176,41.054 262.302,41.417 262.554,41.735 C262.806,42.053 263.166,42.332 263.634,42.572 C264.102,42.812 264.648,43.022 265.272,43.202 C265.656,43.322 265.98,43.442 266.244,43.562 C266.508,43.682 266.721,43.802 266.883,43.922 C267.045,44.042 267.162,44.171 267.234,44.309 C267.306,44.447 267.342,44.606 267.342,44.786 C267.342,45.05 267.258,45.281 267.09,45.479 C266.922,45.677 266.685,45.83 266.379,45.938 C266.073,46.046 265.698,46.1 265.254,46.1 C264.702,46.1 264.249,46.019 263.895,45.857 C263.541,45.695 263.238,45.488 262.986,45.236 C262.854,45.092 262.773,44.969 262.743,44.867 C262.713,44.765 262.686,44.666 262.662,44.57 L262.662,44.57 L262.554,44.498 L262.446,44.66 L261.726,45.884 C262.038,46.172 262.377,46.412 262.743,46.604 C263.109,46.796 263.499,46.94 263.913,47.036 C264.327,47.132 264.762,47.18 265.218,47.18 Z M275.046,47.18 C275.454,47.18 275.832,47.135 276.18,47.045 C276.528,46.955 276.849,46.814 277.143,46.622 C277.437,46.43 277.698,46.196 277.926,45.92 L277.926,45.92 L277.206,45.218 C277.026,45.422 276.825,45.593 276.603,45.731 C276.381,45.869 276.144,45.971 275.892,46.037 C275.64,46.103 275.37,46.136 275.082,46.136 C274.71,46.136 274.359,46.076 274.029,45.956 C273.699,45.836 273.408,45.653 273.156,45.407 C272.904,45.161 272.7,44.843 272.544,44.453 C272.388,44.063 272.298,43.604 272.274,43.076 L272.274,43.076 L278.124,43.076 C278.136,42.98 278.145,42.881 278.151,42.779 C278.157,42.677 278.16,42.578 278.16,42.482 C278.16,41.81 278.073,41.228 277.899,40.736 C277.725,40.244 277.488,39.839 277.188,39.521 C276.888,39.203 276.534,38.966 276.126,38.81 C275.718,38.654 275.28,38.576 274.812,38.576 C274.296,38.576 273.807,38.672 273.345,38.864 C272.883,39.056 272.481,39.335 272.139,39.701 C271.797,40.067 271.527,40.52 271.329,41.06 C271.131,41.6 271.032,42.218 271.032,42.914 C271.032,43.598 271.128,44.207 271.32,44.741 C271.512,45.275 271.785,45.722 272.139,46.082 C272.493,46.442 272.916,46.715 273.408,46.901 C273.9,47.087 274.446,47.18 275.046,47.18 Z M276.846,42.068 L272.328,42.068 C272.388,41.636 272.493,41.264 272.643,40.952 C272.793,40.64 272.976,40.379 273.192,40.169 C273.408,39.959 273.645,39.806 273.903,39.71 C274.161,39.614 274.434,39.566 274.722,39.566 C275.046,39.566 275.337,39.623 275.595,39.737 C275.853,39.851 276.075,40.019 276.261,40.241 C276.447,40.463 276.591,40.727 276.693,41.033 C276.795,41.339 276.846,41.684 276.846,42.068 L276.846,42.068 Z M283.056,47.018 L283.056,42.644 C283.056,42.128 283.128,41.684 283.272,41.312 C283.416,40.94 283.611,40.634 283.857,40.394 C284.103,40.154 284.376,39.977 284.676,39.863 C284.976,39.749 285.276,39.692 285.576,39.692 C285.78,39.692 285.963,39.713 286.125,39.755 C286.287,39.797 286.464,39.878 286.656,39.998 C286.812,40.118 286.914,40.22 286.962,40.304 C287.01,40.388 287.046,40.478 287.07,40.574 L287.07,40.574 L287.196,40.646 L287.268,40.484 L287.844,39.476 C287.556,39.176 287.229,38.951 286.863,38.801 C286.497,38.651 286.098,38.576 285.666,38.576 C285.342,38.576 285.03,38.627 284.73,38.729 C284.43,38.831 284.154,38.981 283.902,39.179 C283.65,39.377 283.434,39.62 283.254,39.908 C283.182,40.0232 283.11864,40.14512 283.06392,40.27376 L283.057,40.29 L283.092,38.774 L281.742,38.774 L281.742,47.018 L283.056,47.018 Z M294.036,47 L296.034,42.374 C296.334,41.678 296.586,41.03 296.79,40.43 C296.994,39.83 297.144,39.278 297.24,38.774 L297.24,38.774 L296.016,38.774 C295.932,39.254 295.803,39.776 295.629,40.34 C295.455,40.904 295.224,41.516 294.936,42.176 L294.936,42.176 L293.609,45.22 L291.066,38.774 L289.77,38.774 L293.028,47 L294.036,47 Z M302.982,37.046 C303.234,37.046 303.453,36.956 303.639,36.776 C303.825,36.596 303.918,36.38 303.918,36.128 C303.918,35.876 303.825,35.657 303.639,35.471 C303.453,35.285 303.234,35.192 302.982,35.192 C302.718,35.192 302.499,35.282 302.325,35.462 C302.151,35.642 302.064,35.864 302.064,36.128 C302.064,36.38 302.154,36.596 302.334,36.776 C302.514,36.956 302.73,37.046 302.982,37.046 Z M305.628,47 L305.628,45.956 L303.702,45.956 L303.702,38.774 L300.408,38.774 L300.408,39.818 L302.406,39.818 L302.406,45.956 L300.3,45.956 L300.3,47 L305.628,47 Z M313.08,47.198 C313.656,47.198 314.193,47.09 314.691,46.874 C315.189,46.658 315.642,46.334 316.05,45.902 L316.05,45.902 L315.294,45.02 C315.102,45.236 314.892,45.419 314.664,45.569 C314.436,45.719 314.196,45.833 313.944,45.911 C313.692,45.989 313.428,46.028 313.152,46.028 C312.744,46.028 312.363,45.947 312.009,45.785 C311.655,45.623 311.352,45.398 311.1,45.11 C310.848,44.822 310.65,44.483 310.506,44.093 C310.362,43.703 310.29,43.274 310.29,42.806 C310.29,42.338 310.362,41.912 310.506,41.528 C310.65,41.144 310.845,40.817 311.091,40.547 C311.337,40.277 311.616,40.07 311.928,39.926 C312.24,39.782 312.57,39.71 312.918,39.71 C313.314,39.71 313.662,39.758 313.962,39.854 C314.262,39.95 314.544,40.118 314.808,40.358 C314.952,40.502 315.045,40.616 315.087,40.7 C315.129,40.784 315.15,40.874 315.15,40.97 L315.15,40.97 L315.24,41.06 L315.366,40.934 L316.176,40.142 C315.84,39.662 315.405,39.287 314.871,39.017 C314.337,38.747 313.734,38.612 313.062,38.612 C312.474,38.612 311.928,38.72 311.424,38.936 C310.92,39.152 310.485,39.452 310.119,39.836 C309.753,40.22 309.468,40.673 309.264,41.195 C309.06,41.717 308.958,42.284 308.958,42.896 C308.958,43.52 309.06,44.093 309.264,44.615 C309.468,45.137 309.753,45.59 310.119,45.974 C310.485,46.358 310.92,46.658 311.424,46.874 C311.928,47.09 312.48,47.198 313.08,47.198 Z M322.296,47.18 C322.704,47.18 323.082,47.135 323.43,47.045 C323.778,46.955 324.099,46.814 324.393,46.622 C324.687,46.43 324.948,46.196 325.176,45.92 L325.176,45.92 L324.456,45.218 C324.276,45.422 324.075,45.593 323.853,45.731 C323.631,45.869 323.394,45.971 323.142,46.037 C322.89,46.103 322.62,46.136 322.332,46.136 C321.96,46.136 321.609,46.076 321.279,45.956 C320.949,45.836 320.658,45.653 320.406,45.407 C320.154,45.161 319.95,44.843 319.794,44.453 C319.638,44.063 319.548,43.604 319.524,43.076 L319.524,43.076 L325.374,43.076 C325.386,42.98 325.395,42.881 325.401,42.779 C325.407,42.677 325.41,42.578 325.41,42.482 C325.41,41.81 325.323,41.228 325.149,40.736 C324.975,40.244 324.738,39.839 324.438,39.521 C324.138,39.203 323.784,38.966 323.376,38.81 C322.968,38.654 322.53,38.576 322.062,38.576 C321.546,38.576 321.057,38.672 320.595,38.864 C320.133,39.056 319.731,39.335 319.389,39.701 C319.047,40.067 318.777,40.52 318.579,41.06 C318.381,41.6 318.282,42.218 318.282,42.914 C318.282,43.598 318.378,44.207 318.57,44.741 C318.762,45.275 319.035,45.722 319.389,46.082 C319.743,46.442 320.166,46.715 320.658,46.901 C321.15,47.087 321.696,47.18 322.296,47.18 Z M324.096,42.068 L319.578,42.068 C319.638,41.636 319.743,41.264 319.893,40.952 C320.043,40.64 320.226,40.379 320.442,40.169 C320.658,39.959 320.895,39.806 321.153,39.71 C321.411,39.614 321.684,39.566 321.972,39.566 C322.296,39.566 322.587,39.623 322.845,39.737 C323.103,39.851 323.325,40.019 323.511,40.241 C323.697,40.463 323.841,40.727 323.943,41.033 C324.045,41.339 324.096,41.684 324.096,42.068 L324.096,42.068 Z M331.134,47.198 C331.41,47.198 331.65,47.096 331.854,46.892 C332.058,46.688 332.16,46.448 332.16,46.172 C332.16,45.896 332.058,45.656 331.854,45.452 C331.65,45.248 331.41,45.146 331.134,45.146 C330.846,45.146 330.6,45.248 330.396,45.452 C330.192,45.656 330.09,45.896 330.09,46.172 C330.09,46.448 330.192,46.688 330.396,46.892 C330.6,47.096 330.846,47.198 331.134,47.198 Z M340.746,50.096 C341.406,50.096 341.964,50.027 342.42,49.889 C342.876,49.751 343.242,49.565 343.518,49.331 C343.794,49.097 343.995,48.833 344.121,48.539 C344.247,48.245 344.31,47.936 344.31,47.612 C344.31,47.312 344.268,47.036 344.184,46.784 C344.1,46.532 343.953,46.31 343.743,46.118 C343.533,45.926 343.23,45.779 342.834,45.677 C342.438,45.575 341.922,45.524 341.286,45.524 C340.65,45.524 340.146,45.497 339.774,45.443 C339.402,45.389 339.141,45.302 338.991,45.182 C338.841,45.062 338.766,44.906 338.766,44.714 C338.766,44.606 338.781,44.507 338.811,44.417 C338.841,44.327 338.892,44.231 338.964,44.129 C338.988,44.095 339.014667,44.0593333 339.044,44.022 L339.097,43.957 L339.227388,44.012551 C339.499714,44.1178571 339.79751,44.1810408 340.120776,44.202102 L340.368,44.21 C340.968,44.21 341.481,44.081 341.907,43.823 C342.333,43.565 342.663,43.217 342.897,42.779 C343.131,42.341 343.248,41.858 343.248,41.33 C343.248,40.802 343.131,40.322 342.897,39.89 L342.939,39.977 L343.07,39.896 C343.228,39.806 343.392,39.7385 343.562,39.6935 L343.734,39.656 C344.082,39.596 344.454,39.584 344.85,39.62 L344.85,39.62 L344.688,38.558 C344.172,38.522 343.725,38.585 343.347,38.747 C343.095,38.855 342.849667,39.0043333 342.611,39.195 L342.474,39.311 L342.401816,39.2346531 C342.303612,39.1396327 342.197571,39.0517143 342.083694,38.970898 L341.907,38.855 C341.481,38.597 340.968,38.468 340.368,38.468 C339.78,38.468 339.27,38.597 338.838,38.855 C338.406,39.113 338.073,39.458 337.839,39.89 C337.605,40.322 337.488,40.802 337.488,41.33 C337.488,41.858 337.605,42.341 337.839,42.779 C337.972714,43.0292857 338.138755,43.2501837 338.337122,43.4416939 L338.412,43.509 L338.31024,43.61456 C338.2104,43.724 338.12064,43.83536 338.04096,43.94864 L337.929,44.12 C337.755,44.408 337.668,44.708 337.668,45.02 C337.668,45.26 337.716,45.47 337.812,45.65 C337.908,45.83 338.049,45.983 338.235,46.109 L338.235,46.109 L338.265,46.128 L338.13375,46.18775 C338.07,46.22 338.007562,46.2550625 337.946437,46.2929375 L337.767,46.415 C337.533,46.589 337.344,46.808 337.2,47.072 C337.056,47.336 336.984,47.636 336.984,47.972 C336.984,48.332 337.071,48.644 337.245,48.908 C337.419,49.172 337.671,49.391 338.001,49.565 C338.331,49.739 338.727,49.871 339.189,49.961 C339.651,50.051 340.17,50.096 340.746,50.096 Z M340.368,43.13 C340.02,43.13 339.711,43.049 339.441,42.887 C339.171,42.725 338.958,42.506 338.802,42.23 C338.646,41.954 338.568,41.654 338.568,41.33 C338.568,40.994 338.646,40.691 338.802,40.421 C338.958,40.151 339.171,39.935 339.441,39.773 C339.711,39.611 340.02,39.53 340.368,39.53 C340.716,39.53 341.025,39.611 341.295,39.773 C341.565,39.935 341.778,40.151 341.934,40.421 C342.09,40.691 342.168,40.994 342.168,41.33 C342.168,41.654 342.09,41.954 341.934,42.23 C341.778,42.506 341.565,42.725 341.295,42.887 C341.025,43.049 340.716,43.13 340.368,43.13 Z M340.764,49.124 C340.356,49.124 339.993,49.094 339.675,49.034 C339.357,48.974 339.087,48.89 338.865,48.782 C338.643,48.674 338.472,48.539 338.352,48.377 C338.232,48.215 338.172,48.032 338.172,47.828 C338.172,47.588 338.202,47.381 338.262,47.207 C338.322,47.033 338.418,46.88 338.55,46.748 C338.682,46.616 338.856,46.484 339.072,46.352 L338.949,46.43 L339.14175,46.4825 C339.28875,46.5185 339.44475,46.5485 339.60975,46.5725 L339.864,46.604 C340.212,46.64 340.596,46.658 341.016,46.658 C341.628,46.658 342.084,46.7 342.384,46.784 C342.684,46.868 342.882,46.994 342.978,47.162 C343.074,47.33 343.122,47.546 343.122,47.81 C343.122,48.062 343.038,48.287 342.87,48.485 C342.702,48.683 342.447,48.839 342.105,48.953 C341.763,49.067 341.316,49.124 340.764,49.124 Z M350.25,47.144 C350.994,47.144 351.651,46.961 352.221,46.595 C352.791,46.229 353.238,45.725 353.562,45.083 C353.886,44.441 354.048,43.706 354.048,42.878 C354.048,42.038 353.886,41.297 353.562,40.655 C353.238,40.013 352.791,39.509 352.221,39.143 C351.651,38.777 350.994,38.594 350.25,38.594 C349.506,38.594 348.849,38.777 348.279,39.143 C347.709,39.509 347.262,40.013 346.938,40.655 C346.614,41.297 346.452,42.038 346.452,42.878 C346.452,43.706 346.614,44.441 346.938,45.083 C347.262,45.725 347.709,46.229 348.279,46.595 C348.849,46.961 349.506,47.144 350.25,47.144 Z M350.25,46.064 C349.782,46.064 349.365,45.926 348.999,45.65 C348.633,45.374 348.345,44.996 348.135,44.516 C347.925,44.036 347.82,43.484 347.82,42.86 C347.82,42.236 347.925,41.684 348.135,41.204 C348.345,40.724 348.633,40.349 348.999,40.079 C349.365,39.809 349.782,39.674 350.25,39.674 C350.73,39.674 351.15,39.809 351.51,40.079 C351.87,40.349 352.155,40.724 352.365,41.204 C352.575,41.684 352.68,42.236 352.68,42.86 C352.68,43.484 352.575,44.036 352.365,44.516 C352.155,44.996 351.87,45.374 351.51,45.65 C351.15,45.926 350.73,46.064 350.25,46.064 Z M360.186,47 L362.184,42.374 C362.484,41.678 362.736,41.03 362.94,40.43 C363.144,39.83 363.294,39.278 363.39,38.774 L363.39,38.774 L362.166,38.774 C362.082,39.254 361.953,39.776 361.779,40.34 C361.605,40.904 361.374,41.516 361.086,42.176 L361.086,42.176 L359.759,45.22 L357.216,38.774 L355.92,38.774 L359.178,47 L360.186,47 Z M368.934,47.198 C369.21,47.198 369.45,47.096 369.654,46.892 C369.858,46.688 369.96,46.448 369.96,46.172 C369.96,45.896 369.858,45.656 369.654,45.452 C369.45,45.248 369.21,45.146 368.934,45.146 C368.646,45.146 368.4,45.248 368.196,45.452 C367.992,45.656 367.89,45.896 367.89,46.172 C367.89,46.448 367.992,46.688 368.196,46.892 C368.4,47.096 368.646,47.198 368.934,47.198 Z M378.078,47.198 C378.354,47.198 378.615,47.165 378.861,47.099 C379.107,47.033 379.341,46.937 379.563,46.811 C379.785,46.685 379.986,46.532 380.166,46.352 C380.346,46.172 380.502,45.968 380.634,45.74 C380.634,45.872 380.637,46.01 380.643,46.154 C380.649,46.298 380.664,46.439 380.688,46.577 C380.712,46.715 380.754,46.856 380.814,47 L380.814,47 L382.056,47 C381.972,46.784 381.921,46.571 381.903,46.361 C381.885,46.151 381.876,45.938 381.876,45.722 L381.876,45.722 L381.876,38.774 L380.616,38.774 L380.616,43.31 C380.616,43.802 380.556,44.228 380.436,44.588 C380.316,44.948 380.151,45.242 379.941,45.47 C379.731,45.698 379.494,45.869 379.23,45.983 C378.966,46.097 378.69,46.154 378.402,46.154 C378.15,46.154 377.91,46.106 377.682,46.01 C377.454,45.914 377.253,45.758 377.079,45.542 C376.905,45.326 376.77,45.038 376.674,44.678 C376.578,44.318 376.53,43.88 376.53,43.364 L376.53,43.364 L376.53,38.774 L375.27,38.774 L375.252,43.364 C375.252,43.892 375.297,44.366 375.387,44.786 C375.477,45.206 375.606,45.566 375.774,45.866 C375.942,46.166 376.143,46.415 376.377,46.613 C376.611,46.811 376.872,46.958 377.16,47.054 C377.448,47.15 377.754,47.198 378.078,47.198 Z M390.498,47.072 L392.172,47 L388.14,42.086 L391.596,38.828 L391.128,38.828 C391.044,38.828 390.957,38.825 390.867,38.819 C390.777,38.813 390.693,38.807 390.615,38.801 C390.537,38.795 390.462,38.786 390.39,38.774 L390.39,38.774 L390.174,38.738 L386.052,42.554 L386.052,35.822 C386.052,35.618 386.061,35.474 386.079,35.39 C386.097,35.306 386.142,35.228 386.214,35.156 L386.214,35.156 L386.214,35.03 L384.738,35.03 L384.738,47 L386.052,47 L386.052,43.886 L387.132,42.878 L390.498,47.072 Z" id="$curlhttps://my-app.tax.service.gov.uk" fill="#ABFEF0" fill-rule="nonzero"></path>
        <g id="Group-2" transform="translate(56.000000, 93.000000)" stroke="#979797" stroke-linecap="round" stroke-linejoin="round" stroke-width="2">
            <polyline id="Rectangle" fill="#D8D8D8" transform="translate(7.000000, 6.500000) rotate(135.000000) translate(-7.000000, -6.500000) " points="11.5 2 11.5 11 2.5 11"></polyline>
            <line x1="2" y1="6.5" x2="15" y2="6.5" id="Line-2"></line>
        </g>
    </g>
</svg>